<svg width="573" height="372" viewBox="0 0 573 372" fill="none" xmlns="http://www.w3.org/2000/svg">
<g clip-path="url(#clip0_883_1232)">
<path d="M290.723 39.8235C300.459 39.8235 308.353 31.2087 308.353 20.5817C308.353 9.95471 300.459 1.33984 290.723 1.33984C280.986 1.33984 273.093 9.95471 273.093 20.5817C273.093 31.2087 280.986 39.8235 290.723 39.8235Z" fill="#93D872" stroke="#1A2E35" stroke-miterlimit="10" stroke-linecap="round" stroke-linejoin="round"/>
<path d="M303.368 54.2417H278.053V370.66H303.368V54.2417Z" fill="#93D872" stroke="#1A2E35" stroke-miterlimit="10" stroke-linecap="round" stroke-linejoin="round"/>
<path d="M310.612 39.3945H270.834V54.1609H310.612V39.3945Z" fill="#93D872" stroke="#1A2E35" stroke-miterlimit="10" stroke-linecap="round" stroke-linejoin="round"/>
<path d="M458.772 95.2713L394.784 59.6016V70.75H256.396V119.766H394.784V130.941L458.772 95.2713Z" fill="#72AE55" stroke="#1A2E35" stroke-miterlimit="10" stroke-linecap="round" stroke-linejoin="round"/>
<path d="M389.578 301.545L358.346 274.799V283.187L263.051 276.059V327.031L358.346 319.929V328.317L389.578 301.545Z" fill="#1A2E35" stroke="#1A2E35" stroke-miterlimit="10" stroke-linecap="round" stroke-linejoin="round"/>
<path d="M180.745 161.09L222.389 125.42V136.569L312.478 141.473V180.68L222.389 185.585V196.76L180.745 161.09Z" fill="white" stroke="#1A2E35" stroke-miterlimit="10" stroke-linecap="round" stroke-linejoin="round"/>
<path d="M114.228 237.334L178.216 201.664V212.839H316.603V261.828H178.216V273.004L114.228 237.334Z" fill="#93D872" stroke="#1A2E35" stroke-miterlimit="10" stroke-linecap="round" stroke-linejoin="round"/>
</g>
<defs>
<clipPath id="clip0_883_1232">
<rect width="347" height="372" fill="white" transform="translate(113)"/>
</clipPath>
</defs>
</svg>
