<svg width="573" height="487" viewBox="0 0 573 487" fill="none" xmlns="http://www.w3.org/2000/svg">
<g clip-path="url(#clip0_883_1232)">
<path d="M70.061 31.9205C77.4177 28.4126 80.0208 18.1905 76.3991 10.9106C72.7773 3.6307 64.1757 -0.405316 56.0645 0.0096012C47.9534 0.424519 40.3704 4.68685 34.5605 10.3825C28.7506 3.29122 17.0177 1.97103 9.81198 7.66671C2.6817 13.287 3.88894 24.7538 9.20836 32.0714C2.94578 35.1267 -1.20412 42.5952 0.304933 49.4979C2.19125 57.9849 12.2642 63.6428 20.4886 60.8139C20.4886 71.828 30.3351 81.8992 41.3135 82.1255C52.3296 82.3518 62.5912 72.7333 63.0816 61.7191C71.4946 65.6043 82.7748 60.0972 84.8875 51.0822C87.0379 42.1049 79.3417 32.1468 70.061 31.9205Z" fill="#93D872"/>
<path d="M77.8678 75.5527C77.8678 78.1177 75.7929 80.23 73.1898 80.23C70.6244 80.23 68.5117 78.1554 68.5117 75.5527C68.5117 72.9878 70.5867 70.8755 73.1898 70.8755C75.7552 70.8755 77.8678 72.9501 77.8678 75.5527Z" fill="#93D872"/>
<g opacity="0.6">
<path d="M70.061 31.9205C77.4177 28.4126 80.0208 18.1905 76.3991 10.9106C72.7773 3.6307 64.1757 -0.405316 56.0645 0.0096012C47.9534 0.424519 40.3704 4.68685 34.5605 10.3825C28.7506 3.29122 17.0177 1.97103 9.81198 7.66671C2.6817 13.287 3.88894 24.7538 9.20836 32.0714C2.94578 35.1267 -1.20412 42.5952 0.304933 49.4979C2.19125 57.9849 12.2642 63.6428 20.4886 60.8139C20.4886 71.828 30.3351 81.8992 41.3135 82.1255C52.3296 82.3518 62.5912 72.7333 63.0816 61.7191C71.4946 65.6043 82.7748 60.0972 84.8875 51.0822C87.0379 42.1049 79.3417 32.1468 70.061 31.9205Z" fill="white"/>
</g>
<path opacity="0.6" d="M77.8678 75.5527C77.8678 78.1177 75.7929 80.23 73.1898 80.23C70.6244 80.23 68.5117 78.1554 68.5117 75.5527C68.5117 72.9878 70.5867 70.8755 73.1898 70.8755C75.7552 70.8755 77.8678 72.9501 77.8678 75.5527Z" fill="white"/>
<path d="M41.4616 42.4347C42.103 41.3408 43.0838 40.0961 44.3288 38.7759C45.2343 37.7952 45.9133 36.9653 46.366 36.2864C46.781 35.6074 47.0074 34.853 47.0074 34.0232C47.0074 32.8162 46.5924 31.8732 45.7624 31.1565C44.9324 30.4398 43.8384 30.1003 42.4802 30.1003C41.1598 30.1003 40.028 30.4021 39.0094 31.0433C37.9908 31.6846 37.1231 32.5521 36.444 33.7214L31.3887 30.2512C32.5582 28.1766 34.1427 26.5547 36.1045 25.3854C38.104 24.2538 40.443 23.688 43.1593 23.688C46.366 23.688 48.9314 24.4801 50.8555 26.1021C52.7795 27.6863 53.7604 29.9117 53.7604 32.7785C53.7604 34.0986 53.5718 35.3057 53.1945 36.2864C52.8173 37.3048 52.3645 38.1724 51.8364 38.8513C51.3082 39.568 50.5914 40.3601 49.7237 41.2654C48.7051 42.3593 47.9506 43.2645 47.4601 43.9812C46.9697 44.6979 46.7433 45.6032 46.7433 46.6593H40.443C40.4807 44.9619 40.7825 43.5663 41.4616 42.4347ZM40.7825 57.2963C40.028 56.5042 39.6508 55.5989 39.6508 54.4673C39.6508 53.3734 40.028 52.4305 40.7825 51.6761C41.5371 50.9217 42.4802 50.5445 43.6497 50.5445C44.8193 50.5445 45.7624 50.9217 46.517 51.6761C47.2715 52.4305 47.6487 53.3357 47.6487 54.4673C47.6487 55.5612 47.2715 56.5042 46.517 57.2963C45.7624 58.0884 44.8193 58.4656 43.6497 58.4656C42.518 58.4656 41.5371 58.0507 40.7825 57.2963Z" fill="#93D872"/>
<path d="M87.3368 200.179C85.3373 193.012 84.8469 185.468 83.3001 178.188C81.7533 170.908 78.8861 163.515 73.2272 158.687C69.6809 155.669 64.8142 153.972 60.2116 154.274C59.1175 154.349 58.0611 154.651 57.0803 155.141C42.6688 161.969 41.4238 162.723 37.5757 167.513C33.1995 172.983 32.7845 181.998 33.8785 188.9C36.4062 204.856 40.4429 218.661 46.6301 231.524C48.3277 235.032 50.3272 238.615 53.5717 240.803C58.2498 243.934 64.4369 243.556 69.9072 242.199C80.0556 239.671 90.3927 232.806 91.9772 222.471C93.1844 214.927 89.4495 207.572 87.3368 200.179Z" fill="#93D872"/>
<g opacity="0.4">
<path d="M87.3368 200.179C85.3373 193.012 84.8469 185.468 83.3001 178.188C81.7533 170.908 78.8861 163.515 73.2272 158.687C69.6809 155.669 64.8142 153.972 60.2116 154.274C59.1175 154.349 58.0611 154.651 57.0803 155.141C42.6688 161.969 41.4238 162.723 37.5757 167.513C33.1995 172.983 32.7845 181.998 33.8785 188.9C36.4062 204.856 40.4429 218.661 46.6301 231.524C48.3277 235.032 50.3272 238.615 53.5717 240.803C58.2498 243.934 64.4369 243.556 69.9072 242.199C80.0556 239.671 90.3927 232.806 91.9772 222.471C93.1844 214.927 89.4495 207.572 87.3368 200.179Z" fill="black"/>
</g>
<path d="M45.6121 159.668C40.1418 166.457 40.7831 176 42.1413 184.11C43.7258 193.54 46.8948 202.593 49.6111 211.759C50.1393 213.494 52.8556 212.777 52.3274 211.004C49.9129 202.744 47.0834 194.596 45.3857 186.185C43.839 178.565 42.2922 168.306 47.6116 161.705C48.7434 160.271 46.7816 158.272 45.6121 159.668Z" fill="#1A2E35"/>
<path d="M50.6661 213.343C51.4206 213.003 52.1751 212.664 52.9674 212.324C53.1183 212.249 53.2692 212.098 53.3824 211.947C53.4955 211.796 53.6087 211.646 53.6464 211.457C53.7219 211.117 53.6842 210.665 53.4955 210.363C53.3069 210.061 53.0051 209.797 52.6656 209.722C52.5524 209.722 52.4015 209.684 52.2883 209.684C52.0242 209.684 51.7979 209.76 51.5715 209.873C50.817 210.212 50.0624 210.552 49.2702 210.891C49.1193 210.967 48.9684 211.117 48.8552 211.268C48.742 211.419 48.6288 211.57 48.5911 211.759C48.5157 212.098 48.5534 212.551 48.742 212.853C48.9307 213.154 49.2325 213.418 49.572 213.494C49.6852 213.494 49.8361 213.531 49.9493 213.531C50.1756 213.531 50.4397 213.494 50.6661 213.343Z" fill="#1A2E35"/>
<path d="M62.4382 119.157C66.7013 111.122 68.5876 102.409 71.7944 93.8844C72.7375 91.3572 74.8502 88.5659 76.6611 86.5668C79.4151 83.5115 86.7717 80.0035 89.488 79.8149L103.183 82.0404C117.066 80.2676 119.367 100.674 119.782 114.442C120.197 128.209 116.349 142.392 108.464 153.633C106.918 155.858 105.144 158.121 102.73 159.366C99.7119 160.913 96.1279 160.762 92.7702 160.498C81.3769 159.592 69.0026 157.669 61.2687 149.257C64.0982 144.844 65.8336 139.789 66.324 134.584C64.1359 139.186 60.4764 143.109 56.0625 145.674C53.1575 143.146 50.2526 140.582 47.3477 138.054C55.157 131.076 58.1751 127.191 62.4382 119.157Z" fill="#1A2E35"/>
<path d="M115.367 144.58C115.367 144.58 122.233 145.183 126.798 153.067C131.363 160.95 135.815 167.362 135.815 167.362L121.064 177.207L115.367 144.58Z" fill="#1A2E35"/>
<path opacity="0.7" d="M115.367 144.58C115.367 144.58 122.233 145.183 126.798 153.067C131.363 160.95 135.815 167.362 135.815 167.362L121.064 177.207L115.367 144.58Z" fill="white"/>
<path d="M123.93 212.475C122.271 211.381 120.196 211.306 118.196 211.268C103.407 211.117 88.5809 212.475 74.0562 215.342L71.4908 216.587C69.4913 215.417 66.775 216.209 65.1151 217.794C63.4174 219.378 62.5119 221.603 61.6442 223.753C54.099 242.387 46.9687 261.247 41.8756 280.673C40.7061 285.161 39.6875 290.178 41.9133 294.289C44.5165 299.08 50.4395 300.739 55.7966 301.682C73.264 304.776 91.1085 304.964 108.84 305.002C113.141 305.002 117.781 304.926 121.327 302.475C126.307 299.042 127.477 292.328 128.08 286.293C130.193 264.34 130.004 242.161 127.401 220.245C126.986 217.416 126.383 214.135 123.93 212.475Z" fill="#1A2E35"/>
<path d="M107.18 473.383L119.441 474.59L128.533 443.509L109.858 441.472L107.18 473.383Z" fill="#FFB29D"/>
<path d="M121.252 469.159H116.875C115.895 469.159 114.951 469.649 114.386 470.441C111.858 473.874 109.972 472.591 107.218 469.347C105.482 469.159 104.992 471.158 104.841 471.686L101.559 483.605C101.257 484.586 101.86 485.642 102.841 485.906C103.03 485.944 103.219 485.982 103.369 485.982C108.689 485.982 111.217 485.982 117.819 485.982H138.078C143.586 485.982 144.755 480.437 142.454 479.909C132.23 477.646 124.987 474.628 121.818 471.648C121.252 471.158 121.855 470.781 121.252 469.159Z" fill="#1A2E35"/>
<path d="M130.759 472.554C131.211 472.214 131.513 471.686 131.513 471.12C131.551 470.818 131.4 470.517 131.174 470.366C129.815 469.385 124.307 471.95 123.704 472.252C123.628 472.289 123.591 472.327 123.553 472.403C123.515 472.516 123.591 472.667 123.704 472.704C125.062 473.006 126.42 473.195 127.816 473.232C128.797 473.308 129.853 473.082 130.759 472.554ZM130.796 470.743C130.909 470.818 130.947 470.932 130.947 471.082C130.909 471.497 130.721 471.875 130.419 472.139C129.174 473.082 126.156 472.667 124.571 472.365C126.797 471.347 130.042 470.215 130.796 470.743Z" fill="#93D872"/>
<path d="M123.855 472.742C125.515 472.063 128.948 469.347 128.759 467.914C128.722 467.612 128.533 467.273 127.778 467.159C124.76 466.82 123.478 472.214 123.478 472.44C123.44 472.516 123.478 472.629 123.553 472.704C123.591 472.704 123.666 472.704 123.742 472.704L123.855 472.742ZM127.665 467.612C128.231 467.688 128.231 467.876 128.231 467.952C128.382 468.819 125.892 471.082 124.081 472.025C124.459 470.781 125.553 467.612 127.439 467.612H127.665Z" fill="#93D872"/>
<path d="M124.27 472.553C122.761 472.742 121.365 473.647 120.535 474.967" stroke="#93D872" stroke-width="0.5" stroke-miterlimit="10" stroke-linecap="round" stroke-linejoin="round"/>
<path d="M126.987 474.59C125.478 474.779 124.082 475.684 123.252 477.004" stroke="#93D872" stroke-width="0.5" stroke-miterlimit="10" stroke-linecap="round" stroke-linejoin="round"/>
<path d="M130.381 476.325C128.872 476.514 127.476 477.419 126.646 478.739" stroke="#93D872" stroke-width="0.5" stroke-miterlimit="10" stroke-linecap="round" stroke-linejoin="round"/>
<path opacity="0.3" d="M123.741 459.917L122.609 463.727L108.16 461.539L108.424 458.408L123.741 459.917Z" fill="black"/>
<path d="M64.6621 474.364L76.9232 475.571L85.9775 444.49L67.3407 442.453L64.6621 474.364Z" fill="#FFB29D"/>
<path d="M78.697 470.139H74.3208C73.3399 470.139 72.3967 470.63 71.8308 471.422C69.3032 474.854 67.4168 473.572 64.6628 470.328C62.9274 470.139 62.437 472.138 62.2861 472.666L59.0039 484.586C58.7021 485.567 59.3057 486.623 60.2866 486.887C60.4752 486.924 60.6638 486.962 60.8147 486.962C66.1342 486.962 68.6618 486.962 75.2639 486.962H95.523C101.031 486.962 102.201 481.417 99.8992 480.889C89.6754 478.626 82.4319 475.609 79.2629 472.629C78.7347 472.138 79.3384 471.761 78.697 470.139Z" fill="#1A2E35"/>
<path d="M88.2038 473.534C88.6566 473.195 88.9584 472.666 88.9584 472.101C88.9961 471.799 88.8452 471.497 88.6188 471.346C87.2607 470.366 81.7526 472.93 81.149 473.232C81.0736 473.27 81.0358 473.308 80.9981 473.383C80.9604 473.496 81.0358 473.647 81.149 473.685C82.5072 473.987 83.8653 474.175 85.2612 474.213C86.2798 474.288 87.2984 474.062 88.2038 473.534ZM88.2416 471.761C88.3547 471.837 88.3925 471.95 88.3925 472.101C88.3547 472.516 88.1661 472.893 87.8643 473.157C86.6193 474.1 83.6012 473.685 82.0167 473.383C84.2803 472.327 87.487 471.233 88.2416 471.761Z" fill="#93D872"/>
<path d="M81.3003 473.722C82.9602 473.043 86.3933 470.328 86.2047 468.894C86.167 468.593 85.9783 468.253 85.2238 468.14C82.2057 467.8 80.923 473.194 80.923 473.421C80.8853 473.496 80.923 473.609 80.9985 473.685C81.0362 473.685 81.1116 473.685 81.1871 473.685L81.3003 473.722ZM85.1484 468.593C85.7143 468.668 85.7143 468.857 85.7143 468.932C85.8652 469.8 83.3752 472.063 81.5644 473.006C81.9416 471.761 83.0357 468.593 84.922 468.593H85.1484Z" fill="#93D872"/>
<path d="M81.7525 473.534C80.2434 473.722 78.8476 474.628 78.0176 475.948" stroke="#93D872" stroke-width="0.5" stroke-miterlimit="10" stroke-linecap="round" stroke-linejoin="round"/>
<path d="M84.4693 475.571C82.9602 475.759 81.5644 476.665 80.7344 477.985" stroke="#93D872" stroke-width="0.5" stroke-miterlimit="10" stroke-linecap="round" stroke-linejoin="round"/>
<path d="M87.8638 477.306C86.3548 477.494 84.9589 478.4 84.1289 479.72" stroke="#93D872" stroke-width="0.5" stroke-miterlimit="10" stroke-linecap="round" stroke-linejoin="round"/>
<path opacity="0.3" d="M65.6445 462.52L65.9086 459.389L81.1878 460.898L80.0937 464.708" fill="black"/>
<path opacity="0.2" d="M130.57 237.559C130.57 237.559 121.554 247.064 103.898 247.253C86.2419 247.404 66.4355 237.144 66.4355 237.144L68.6614 233.334L119.517 238.879L129.25 233.334L130.57 237.559Z" fill="black"/>
<path d="M132.118 242.991C132.118 242.991 142.87 286.972 147.699 326.087C149.17 338.007 151.434 359.394 148.83 371.125L127.251 463.161L104.464 460.86C110.236 420.274 115.971 371.917 115.971 352.718L85.0352 256.494L132.118 242.991Z" fill="#93D872"/>
<path opacity="0.2" d="M100.239 303.946C100.163 304.361 112.462 254.08 112.462 254.08C112.462 254.08 115.782 295.119 103.408 314.696L100.239 303.946Z" fill="black"/>
<path d="M122.874 223.603C122.874 223.603 100.842 235.447 70.7744 233.221C70.4726 233.183 70.1708 233.183 69.869 233.146L67.9449 234.428C64.5118 240.312 59.947 252.534 60.0224 268.904C60.7015 294.516 64.4741 334.31 64.8137 342.948C64.8514 342.948 64.8891 342.948 64.9268 342.948C64.7005 349.549 64.4741 354.566 64.2478 357.055C61.1165 390.663 60.0224 466.367 60.0224 466.367L82.8846 466.706C82.8846 466.706 99.9746 352.189 100.39 345.173C100.427 344.381 100.503 343.589 100.54 342.797L101.597 330.538C102.653 319.335 104.011 306.85 104.69 294.252L106.426 273.808C121.441 268.866 129.439 246.8 132.08 243.028C128.194 228.582 126.458 229.864 122.874 223.603Z" fill="#93D872"/>
<path d="M61.4573 177.283L53.7988 151.143C58.6655 143.901 82.6595 138.318 82.6595 138.318L98.4668 139.186C98.4668 139.186 104.541 140.544 109.747 142.241C116.689 144.504 120.461 146.315 122.121 150.2C122.121 150.2 125.026 158.762 123.291 176.34C122.8 181.168 121.706 206.742 123.064 215.04L132.911 234.278C104.013 256.796 67.0031 234.278 67.0031 234.278C68.2857 230.317 71.153 221.491 71.7566 217.605C71.3416 212.664 69.9457 209.382 67.833 200.707C67.418 199.047 62.1741 178.905 61.4573 177.283Z" fill="#1A2E35"/>
<path opacity="0.7" d="M61.4573 177.283L53.7988 151.143C58.6655 143.901 82.6595 138.318 82.6595 138.318L98.4668 139.186C98.4668 139.186 104.541 140.544 109.747 142.241C116.689 144.504 120.461 146.315 122.121 150.2C122.121 150.2 125.026 158.762 123.291 176.34C122.8 181.168 121.706 206.742 123.064 215.04L132.911 234.278C104.013 256.796 67.0031 234.278 67.0031 234.278C68.2857 230.317 71.153 221.491 71.7566 217.605C71.3416 212.664 69.9457 209.382 67.833 200.707C67.418 199.047 62.1741 178.905 61.4573 177.283Z" fill="white"/>
<path opacity="0.2" d="M64.4751 186.638H65.871L70.1341 174.115L68.2478 202.518L64.3242 187.656L64.4751 186.638Z" fill="black"/>
<path d="M97.3718 140.619C95.7119 138.96 94.9573 137.262 95.2969 134.848C95.5232 133 96.1269 131.076 96.8059 129.19L94.3537 126.512L81.5268 114.442C82.1304 122.778 83.6394 136.131 77.2637 140.921L97.4096 157.178V140.619H97.3718Z" fill="#FFB29D"/>
<path opacity="0.2" d="M95.2217 135.376C91.7509 133.49 87.8651 130.095 88.1669 126.097C88.3178 124.4 88.6196 122.778 88.9969 121.759L96.2781 130.699C95.7499 132.208 95.5613 133.151 95.2217 135.376Z" fill="black"/>
<path d="M78.1312 101.164C79.7534 113.838 80.1684 119.232 86.9969 125.682C97.2585 135.376 112.311 131.416 114.499 118.742C116.461 107.313 113.443 88.4905 100.767 83.5869C88.2419 78.7211 76.509 88.4905 78.1312 101.164Z" fill="#FFB29D"/>
<path opacity="0.3" d="M112.236 124.588C112.236 124.588 111.745 123.985 110.953 124.249C110.123 124.551 108.199 126.06 108.199 128.662C108.199 128.662 109.218 128.021 110.387 126.927C111.104 126.21 112.236 124.588 112.236 124.588Z" fill="black"/>
<path d="M96.5039 105.955C96.5039 107.388 97.183 108.633 98.0507 108.708C98.8807 108.784 99.5597 107.652 99.5597 106.219C99.5597 104.785 98.8807 103.541 98.013 103.465C97.183 103.428 96.5039 104.521 96.5039 105.955Z" fill="#1A2E35"/>
<path d="M109.218 104.936C109.181 106.332 109.784 107.577 110.614 107.69C111.444 107.803 112.161 106.785 112.199 105.389C112.237 103.993 111.633 102.749 110.803 102.635C110.011 102.485 109.294 103.541 109.218 104.936Z" fill="#1A2E35"/>
<path d="M93.9377 101.127C94.0886 101.127 94.2773 101.089 94.3905 100.976C96.2768 99.0522 98.5026 99.618 98.5403 99.618C98.8799 99.6935 99.1817 99.5049 99.2571 99.1654C99.3326 98.8259 99.1062 98.4864 98.7667 98.411C98.6535 98.3733 95.8241 97.6943 93.5227 100.071C93.2964 100.297 93.2964 100.712 93.5605 100.976C93.6359 101.051 93.7868 101.089 93.9377 101.127Z" fill="#1A2E35"/>
<path d="M113.556 95.3179C113.707 95.2802 113.82 95.1671 113.895 95.0162C114.046 94.7144 113.895 94.3372 113.594 94.1863C110.387 92.6398 107.859 93.9977 107.784 94.0355C107.482 94.1863 107.406 94.5635 107.595 94.8653C107.784 95.1671 108.161 95.2425 108.463 95.0916C108.576 95.0539 110.5 94.0355 113.065 95.2425C113.216 95.3557 113.367 95.3557 113.556 95.3179Z" fill="#1A2E35"/>
<path d="M103.898 103.729C103.898 103.729 106.049 108.407 108.426 111.311C108.841 111.802 108.614 112.594 108.011 112.82C106.464 113.461 104.615 113.009 104.615 113.009L103.898 103.729Z" fill="#CF7061"/>
<path d="M97.6348 103.541L100.577 102.975C100.577 102.975 98.8797 105.087 97.6348 103.541Z" fill="#1A2E35"/>
<path d="M110.35 102.749L113.33 102.372C113.33 102.372 111.481 104.371 110.35 102.749Z" fill="#1A2E35"/>
<path d="M74.6989 94.2242C72.9634 96.7137 76.3965 103.956 76.3965 103.956C76.3965 103.956 82.5082 102.145 82.8478 111.349C85.1113 111.726 87.639 103.126 87.2618 94.4882C86.809 89.6223 77.7547 89.8109 74.6989 94.2242Z" fill="#1A2E35"/>
<path d="M104.426 84.0019C101.748 78.4194 97.0318 76.3448 84.3935 81.7764C73.0001 86.6423 80.2435 103.616 82.8467 111.386C83.4126 113.046 97.8995 94.6766 97.8995 94.6766L104.426 84.0019Z" fill="#1A2E35"/>
<path d="M74.6603 111.688C76.2448 114.253 78.7724 115.799 81.036 116.29C84.4314 117.007 85.9782 111.537 84.6955 108.218C83.5637 105.2 80.1683 103.314 76.9238 104.106C73.7171 104.823 72.8494 108.746 74.6603 111.688Z" fill="#FFB29D"/>
<path opacity="0.2" d="M79.3381 107.237C78.2441 106.822 77.15 107.539 76.7727 108.444C76.3577 109.538 76.9236 112.028 80.2435 112.82" stroke="black" stroke-width="0.5" stroke-miterlimit="10" stroke-linecap="round" stroke-linejoin="round"/>
<path d="M98.8432 116.516C99.4468 117.384 100.277 118.138 101.258 118.591C102.239 119.044 103.333 119.308 104.427 119.157C104.804 119.119 105.144 119.044 105.445 118.742C105.709 118.478 105.86 118.101 105.86 117.723C105.86 117.346 105.709 116.969 105.445 116.705C105.181 116.479 104.804 116.252 104.427 116.29C104.049 116.328 103.71 116.328 103.333 116.29C103.446 116.29 103.597 116.328 103.71 116.328C103.295 116.252 102.88 116.139 102.465 115.988C102.578 116.026 102.691 116.101 102.804 116.139C102.427 115.988 102.088 115.762 101.748 115.536C101.861 115.611 101.937 115.686 102.05 115.762C101.748 115.536 101.484 115.234 101.22 114.932C101.295 115.045 101.371 115.121 101.446 115.234C101.409 115.196 101.371 115.121 101.333 115.083C101.107 114.781 100.843 114.517 100.503 114.442C100.164 114.366 99.7109 114.404 99.4091 114.593C98.7677 114.97 98.3905 115.875 98.8432 116.516Z" fill="#1A2E35"/>
<path d="M127.213 186.713L140.04 187.014L142.907 193.54L136.305 201.914C136.305 201.914 134.721 201.8 135.249 199.613C135.664 197.915 136.569 196.557 136.569 196.557L127.817 199.198C126.157 199.688 124.459 198.481 124.384 196.746L123.969 186.675L127.213 186.713Z" fill="#FFB29D"/>
<path d="M77.8664 182.299C78.1682 185.732 78.4701 189.164 78.3569 192.597C78.2814 195.501 77.6778 199.047 76.6592 201.31C74.5088 206.1 70.5098 209.608 65.7563 211.079C63.5682 211.758 62.1723 214.022 62.7759 216.285C63.3795 218.435 65.794 219.944 67.9821 219.265C74.6974 217.152 80.6582 212.4 83.7518 206.025C87.3735 198.594 87.0339 190.334 86.2794 182.299C86.0908 179.998 84.4686 178.075 82.0541 178.075C79.9791 178.075 77.6778 179.998 77.8664 182.299Z" fill="#93D872"/>
<g opacity="0.4">
<path d="M77.8664 182.299C78.1682 185.732 78.4701 189.164 78.3569 192.597C78.2814 195.501 77.6778 199.047 76.6592 201.31C74.5088 206.1 70.5098 209.608 65.7563 211.079C63.5682 211.758 62.1723 214.022 62.7759 216.285C63.3795 218.435 65.794 219.944 67.9821 219.265C74.6974 217.152 80.6582 212.4 83.7518 206.025C87.3735 198.594 87.0339 190.334 86.2794 182.299C86.0908 179.998 84.4686 178.075 82.0541 178.075C79.9791 178.075 77.6778 179.998 77.8664 182.299Z" fill="black"/>
</g>
<path d="M52.1371 163.289C52.1371 163.289 53.948 169.248 56.5511 177.207C59.1542 185.166 63.5682 204.403 71.189 210.25C78.8097 216.096 92.8816 207.157 106.199 203.762C118.347 200.669 127.024 197.199 127.213 197.199L124.006 186.675L81.9032 192.823L63.8323 154.387C63.8323 154.349 50.8922 154.236 52.1371 163.289Z" fill="#FFB29D"/>
<path opacity="0.2" d="M119.781 185.845C119.781 185.845 122.799 193.691 126.534 194.973C130.307 196.256 139.889 196.633 140.719 187.618L119.781 185.845Z" fill="black"/>
<path d="M80.5072 192.785C78.9227 195.728 77.6023 198.783 76.546 201.951C76.3196 202.668 76.81 203.536 77.5268 203.686C78.3191 203.875 78.9982 203.46 79.2622 202.706C80.2431 199.726 81.4504 197.01 82.9217 194.219C83.2612 193.578 83.1103 192.635 82.4313 192.295C81.7899 191.918 80.8845 192.069 80.5072 192.785Z" fill="#CF7061"/>
<path d="M53.7989 151.105C45.9141 158.725 54.7421 188.297 54.7421 188.297L79.9811 181.658C79.9811 181.658 73.9826 159.403 67.9463 153.783C62.8156 149.068 58.1375 146.805 53.7989 151.105Z" fill="#1A2E35"/>
<g opacity="0.7">
<path d="M53.7989 151.105C45.9141 158.725 54.7421 188.297 54.7421 188.297L79.9811 181.658C79.9811 181.658 73.9826 159.403 67.9463 153.783C62.8156 149.068 58.1375 146.805 53.7989 151.105Z" fill="white"/>
</g>
<path d="M86.8085 168.645C85.6767 164.496 84.6581 160.271 82.9981 156.311C81.3382 152.35 79.0368 148.541 75.7547 145.749C72.4725 142.958 68.0962 141.261 63.8331 141.751C59.57 142.241 54.8165 146.24 54.2129 150.577C56.0238 148.578 59.1173 147.145 61.645 148.013C64.1727 148.88 66.2099 150.917 67.568 153.256C68.9262 155.556 69.7562 158.159 70.5484 160.724C72.4347 166.797 74.2833 172.832 76.1696 178.905C76.6601 180.565 77.2637 182.3 78.5841 183.394C80.5459 185.016 83.6395 184.601 85.5258 182.903C87.4121 181.206 88.2043 178.565 88.2043 176.038C88.1666 173.549 87.4876 171.059 86.8085 168.645Z" fill="#93D872"/>
<g opacity="0.4">
<path d="M86.8085 168.645C85.6767 164.496 84.6581 160.271 82.9981 156.311C81.3382 152.35 79.0368 148.541 75.7547 145.749C72.4725 142.958 68.0962 141.261 63.8331 141.751C59.57 142.241 54.8165 146.24 54.2129 150.577C56.0238 148.578 59.1173 147.145 61.645 148.013C64.1727 148.88 66.2099 150.917 67.568 153.256C68.9262 155.556 69.7562 158.159 70.5484 160.724C72.4347 166.797 74.2833 172.832 76.1696 178.905C76.6601 180.565 77.2637 182.3 78.5841 183.394C80.5459 185.016 83.6395 184.601 85.5258 182.903C87.4121 181.206 88.2043 178.565 88.2043 176.038C88.1666 173.549 87.4876 171.059 86.8085 168.645Z" fill="black"/>
</g>
<path d="M122.611 150.313C121.781 148.012 120.762 145.711 119.102 143.901C117.442 142.09 115.066 140.808 112.613 140.996L108.312 142.166C110.878 151.483 113.481 160.762 116.046 170.078C116.688 172.455 117.442 174.982 119.329 176.566C121.177 178.188 124.573 178.264 125.78 176.114C126.233 175.284 126.308 174.303 126.346 173.322C126.61 165.514 125.327 157.631 122.611 150.313Z" fill="#93D872"/>
<g opacity="0.4">
<path d="M122.611 150.313C121.781 148.012 120.762 145.711 119.102 143.901C117.442 142.09 115.066 140.808 112.613 140.996L108.312 142.166C110.878 151.483 113.481 160.762 116.046 170.078C116.688 172.455 117.442 174.982 119.329 176.566C121.177 178.188 124.573 178.264 125.78 176.114C126.233 175.284 126.308 174.303 126.346 173.322C126.61 165.514 125.327 157.631 122.611 150.313Z" fill="black"/>
</g>
<path d="M114.613 141.826C114.613 141.826 114.387 132.622 113.67 131.114C112.953 129.605 112.085 129.152 112.085 127.455C112.085 125.795 112.387 124.475 111.444 124.663C110.463 124.852 109.558 126.625 109.331 127.945C109.067 129.265 109.633 132.773 109.633 132.773C109.633 132.773 102.39 128.398 99.4847 127.757C97.0702 127.191 94.203 126.814 93.2976 127.907C92.9203 128.398 93.109 129.114 93.6371 129.416C94.0521 129.643 94.7689 129.944 95.9762 130.246C99.9752 131.227 101.296 131.981 101.296 131.981C101.296 131.981 97.4475 131.793 96.4289 132.471C95.4103 133.188 95.448 133.679 95.7121 134.508C95.9762 135.338 96.6175 135.866 96.6175 135.866C96.6175 135.866 95.3348 135.451 94.8821 137.073C94.4294 138.695 95.7121 139.261 95.7121 139.261C95.7121 139.261 94.5048 140.43 95.2216 141.901C95.9384 143.372 98.0134 142.882 98.0134 142.882C98.0134 142.882 103.446 149.483 105.521 149.634C107.596 149.785 110.274 148.314 110.086 148.314C109.897 148.314 114.915 142.467 114.915 142.467L114.613 141.826Z" fill="#FFB29D"/>
<path d="M106.199 149.219C106.199 149.219 116.348 179.998 120.196 186.675C124.044 193.351 130.533 195.501 136.795 192.71C138.304 192.031 139.851 190.484 140.417 188.334C141.021 186.147 139.738 179.319 136.531 173.397C133.928 168.569 133.815 168.645 133.815 168.645L130.231 171.021L114.273 141.298L106.199 149.219Z" fill="#FFB29D"/>
<path d="M129.516 171.399C130.723 173.85 131.93 176.302 133.137 178.754C133.326 179.093 133.477 179.433 133.666 179.81C134.005 180.489 134.986 180.715 135.59 180.3C136.269 179.848 136.457 179.093 136.08 178.377C134.873 175.925 133.666 173.473 132.458 171.021C132.27 170.682 132.119 170.342 131.93 169.965C131.591 169.286 130.61 169.06 130.006 169.475C129.327 169.89 129.138 170.682 129.516 171.399Z" fill="#CF7061"/>
<path d="M114.613 141.826C114.613 141.826 114.387 132.622 113.67 131.114C112.953 129.605 112.085 129.152 112.085 127.455C112.085 125.795 112.387 124.475 111.444 124.663C110.463 124.852 109.558 126.625 109.331 127.945C109.067 129.265 109.633 132.773 109.633 132.773C109.633 132.773 102.39 128.398 99.4847 127.757C97.0702 127.191 94.203 126.814 93.2976 127.907C92.9203 128.398 93.109 129.114 93.6371 129.416C94.0521 129.642 94.7689 129.944 95.9762 130.246C99.9752 131.227 101.296 131.981 101.296 131.981C101.296 131.981 97.4475 131.793 96.4289 132.471C95.4103 133.188 95.448 133.679 95.7121 134.508C95.9762 135.338 96.6175 135.866 96.6175 135.866C96.6175 135.866 95.3348 135.451 94.8821 137.073C94.4294 138.695 95.7121 139.261 95.7121 139.261C95.7121 139.261 94.5048 140.43 95.2216 141.901C95.9384 143.372 98.0134 142.882 98.0134 142.882C98.0134 142.882 104.276 149.483 106.351 149.634" stroke="#CF7061" stroke-width="0.5" stroke-miterlimit="10" stroke-linecap="round" stroke-linejoin="round"/>
<path d="M94.8072 222.396C87.6392 217.492 78.7358 215.153 70.0964 215.983L65.8711 227.111C77.7172 237.785 92.2041 239.219 108.125 238.728C110.35 230.468 101.975 227.299 94.8072 222.396Z" fill="#1A2E35"/>
<path d="M128.12 215.229C126.95 213.041 124.573 211.306 122.121 211.683C120.31 211.947 118.839 213.305 117.594 214.663C112.576 220.019 108.728 226.432 106.352 233.372L107.295 238.69C108.955 238.012 110.577 237.333 112.237 236.654C116.915 234.73 121.706 232.731 125.215 229.072C128.723 225.451 130.534 219.68 128.12 215.229Z" fill="#1A2E35"/>
<path d="M115.179 234.277C115.179 237.974 112.199 240.954 108.502 240.954C104.805 240.954 101.824 237.974 101.824 234.277C101.824 230.581 104.805 227.601 108.502 227.601C112.199 227.601 115.179 230.581 115.179 234.277Z" fill="#1A2E35"/>
<path d="M111.407 260.568C110.841 252.609 110.313 244.688 109.747 236.729L106.653 238.766C96.9201 252.986 92.657 270.865 94.9206 287.952C99.0705 288.669 103.296 288.933 107.521 288.745C106.352 286.255 105.144 283.728 103.975 281.238C107.634 279.805 110.087 276.146 111.03 272.299C111.935 268.489 111.671 264.491 111.407 260.568Z" fill="#1A2E35"/>
<path d="M124.913 268.941C126.687 266.527 127.026 263.321 126.837 260.341C126.234 250.798 120.726 241.708 112.539 236.804L111.219 235.748C115.972 250.082 115.029 265.584 114.086 280.635C117.293 279.993 120.462 279.352 123.668 278.711C122.688 276.749 121.669 274.449 122.461 272.412C122.914 271.054 124.083 270.073 124.913 268.941Z" fill="#1A2E35"/>
<g opacity="0.3">
<path d="M107.597 229.638C109.332 229.298 111.483 230.128 112.502 231.75C113.52 233.41 113.445 235.711 112.237 237.219C110.992 238.841 108.767 239.369 106.956 238.766C105.183 238.2 103.824 236.276 103.749 234.466C103.674 232.278 105.22 230.241 107.371 229.675C109.144 229.223 108.389 226.469 106.616 226.96C103.56 227.752 101.259 230.505 100.957 233.636C100.655 236.578 102.429 239.709 105.069 241.029C107.861 242.425 111.332 241.897 113.633 239.784C115.897 237.748 116.614 234.164 115.444 231.373C114.048 227.978 110.351 226.168 106.805 226.884C106.05 227.035 105.635 227.94 105.824 228.619C106.088 229.449 106.843 229.789 107.597 229.638Z" fill="black"/>
</g>
<g opacity="0.3">
<path d="M110.351 228.355C107.559 231.562 105.409 235.183 103.824 239.143C103.56 239.86 104.126 240.69 104.805 240.878C105.597 241.105 106.276 240.614 106.54 239.898C107.899 236.465 109.898 233.184 112.312 230.355C112.803 229.789 112.878 228.921 112.312 228.355C111.822 227.827 110.841 227.752 110.351 228.355Z" fill="black"/>
</g>
<g opacity="0.3">
<path d="M115.218 231.41C116.953 229.147 118.726 226.884 120.462 224.621C120.688 224.357 120.688 223.829 120.613 223.527C120.537 223.187 120.273 222.848 119.971 222.697C119.217 222.282 118.538 222.584 118.047 223.187C116.312 225.451 114.539 227.714 112.803 229.977C112.577 230.241 112.577 230.769 112.653 231.071C112.728 231.41 112.992 231.75 113.294 231.901C114.048 232.316 114.727 232.052 115.218 231.41Z" fill="black"/>
</g>
<g opacity="0.3">
<path d="M114.839 231.976C116.914 231.109 118.989 230.166 120.951 229.034C121.592 228.657 121.856 227.714 121.441 227.111C121.026 226.469 120.197 226.205 119.517 226.62C118.612 227.148 117.669 227.601 116.726 228.091C116.273 228.318 115.82 228.544 115.33 228.733C115.103 228.846 114.877 228.921 114.651 229.034C114.575 229.072 114.5 229.11 114.462 229.11C114.651 229.034 114.651 229.034 114.5 229.11C114.349 229.147 114.236 229.223 114.085 229.261C113.745 229.411 113.443 229.562 113.255 229.902C113.066 230.204 112.991 230.656 113.104 230.996C113.33 231.637 114.123 232.278 114.839 231.976Z" fill="black"/>
</g>
<g opacity="0.3">
<path d="M102.39 232.353C98.3156 231.486 94.3921 230.203 90.6195 228.431C89.9404 228.091 89.1104 228.242 88.6954 228.921C88.3182 229.524 88.5068 230.543 89.1859 230.845C93.1471 232.731 97.3348 234.164 101.636 235.069C102.39 235.22 103.182 234.843 103.371 234.089C103.56 233.41 103.107 232.504 102.39 232.353Z" fill="black"/>
</g>
</g>
<g clip-path="url(#clip1_883_1232)">
<path d="M403.724 39.8235C413.46 39.8235 421.354 31.2087 421.354 20.5817C421.354 9.95471 413.46 1.33984 403.724 1.33984C393.987 1.33984 386.094 9.95471 386.094 20.5817C386.094 31.2087 393.987 39.8235 403.724 39.8235Z" fill="#93D872" stroke="#1A2E35" stroke-miterlimit="10" stroke-linecap="round" stroke-linejoin="round"/>
<path d="M416.368 54.2417H391.053V370.66H416.368V54.2417Z" fill="#93D872" stroke="#1A2E35" stroke-miterlimit="10" stroke-linecap="round" stroke-linejoin="round"/>
<path d="M423.612 39.3945H383.834V54.1609H423.612V39.3945Z" fill="#93D872" stroke="#1A2E35" stroke-miterlimit="10" stroke-linecap="round" stroke-linejoin="round"/>
<path d="M571.774 95.2713L507.786 59.6016V70.75H369.398V119.766H507.786V130.941L571.774 95.2713Z" fill="#72AE55" stroke="#1A2E35" stroke-miterlimit="10" stroke-linecap="round" stroke-linejoin="round"/>
<path d="M502.578 301.545L471.346 274.799V283.187L376.051 276.059V327.031L471.346 319.929V328.317L502.578 301.545Z" fill="#1A2E35" stroke="#1A2E35" stroke-miterlimit="10" stroke-linecap="round" stroke-linejoin="round"/>
<path d="M293.746 161.09L335.39 125.42V136.569L425.479 141.473V180.68L335.39 185.585V196.76L293.746 161.09Z" fill="white" stroke="#1A2E35" stroke-miterlimit="10" stroke-linecap="round" stroke-linejoin="round"/>
<path d="M227.229 237.334L291.217 201.664V212.839H429.604V261.828H291.217V273.004L227.229 237.334Z" fill="#93D872" stroke="#1A2E35" stroke-miterlimit="10" stroke-linecap="round" stroke-linejoin="round"/>
</g>
<defs>
<clipPath id="clip0_883_1232">
<rect width="150" height="487" fill="white"/>
</clipPath>
<clipPath id="clip1_883_1232">
<rect width="347" height="372" fill="white" transform="translate(226)"/>
</clipPath>
</defs>
</svg>
