<svg width="459" height="428" viewBox="0 0 459 428" fill="none" xmlns="http://www.w3.org/2000/svg">
<g clip-path="url(#clip0_886_828)">
<path d="M67.5725 395.412C157.008 438.196 302.004 438.196 391.426 395.412C480.861 352.627 480.861 283.252 391.426 240.467C301.991 197.682 156.995 197.682 67.5725 240.467C-21.8627 283.252 -21.8627 352.627 67.5725 395.412Z" fill="#F5F5F5"/>
<path d="M391.127 363.792C407.599 363.792 420.952 357.405 420.952 349.526C420.952 341.647 407.599 335.26 391.127 335.26C374.656 335.26 361.303 341.647 361.303 349.526C361.303 357.405 374.656 363.792 391.127 363.792Z" fill="#EBEBEB"/>
<path d="M60.7188 351.572L71.2573 345.461C71.2573 345.461 79.953 339.038 84.2618 327.131C87.5195 318.115 87.0782 311.262 84.7291 307.823C81.8478 303.589 74.4111 304.331 74.1256 313.256C73.5545 330.805 68.441 342.96 60.7188 351.572Z" fill="#72AE55"/>
<path opacity="0.2" d="M60.7188 351.572L71.2573 345.461C71.2573 345.461 79.953 339.038 84.2618 327.131C87.5195 318.115 87.0782 311.262 84.7291 307.823C81.8478 303.589 74.4111 304.331 74.1256 313.256C73.5545 330.805 68.441 342.96 60.7188 351.572Z" fill="black"/>
<path d="M60.719 352.223C60.5114 352.223 60.3167 352.119 60.1869 351.936C59.9793 351.637 60.0571 351.233 60.3556 351.024C84.7553 334.075 80.0311 310.468 79.9792 310.233C79.9013 309.881 80.122 309.53 80.4724 309.464C80.8228 309.386 81.1732 309.608 81.2381 309.96C81.29 310.207 86.2219 334.635 61.0954 352.093C60.9786 352.184 60.8488 352.223 60.719 352.223Z" fill="white"/>
<path d="M39.6296 363.792C39.6296 363.792 35.9567 360.795 36.8522 356.731C37.7348 352.666 40.1098 349.747 36.0346 344.51C31.9593 339.273 30.908 332.29 35.6971 328.498C39.396 325.567 45.1715 329.723 47.261 321.958C48.7795 316.304 48.2604 303.784 55.4505 299.615C62.6406 295.446 67.0922 301.725 65.9891 310.207C65.0027 317.802 63.614 325.124 64.6782 327.104C66.7807 331 70.3758 330.479 70.2071 337.618C70.0513 344.263 63.7957 349.76 63.7957 349.76L39.6296 363.792Z" fill="#72AE55"/>
<path d="M51.6859 357.447C51.3615 357.447 51.0759 357.2 51.037 356.874C49.1811 341.435 53.6068 314.78 57.2667 306.859C57.4224 306.533 57.7988 306.39 58.1233 306.546C58.4477 306.702 58.5905 307.08 58.4348 307.406C54.8397 315.197 50.5438 341.957 52.3219 356.718C52.3608 357.069 52.1142 357.395 51.7508 357.447C51.7378 357.447 51.7119 357.447 51.6859 357.447Z" fill="white"/>
<path d="M51.3371 345.435C51.2463 345.435 51.1425 345.409 51.0516 345.37C46.5481 343.155 43.6928 335.312 43.576 334.973C43.4592 334.635 43.6279 334.257 43.9653 334.14C44.3028 334.022 44.6791 334.192 44.796 334.53C44.8219 334.609 47.5863 342.217 51.6227 344.197C51.9471 344.354 52.0769 344.745 51.9212 345.07C51.8173 345.305 51.5837 345.435 51.3371 345.435Z" fill="white"/>
<path d="M51.2715 350.633C51.0119 350.633 50.7653 350.477 50.6745 350.229C50.5447 349.891 50.7004 349.513 51.0379 349.382C58.6173 346.334 63.3415 337.266 63.3934 337.175C63.5621 336.849 63.9515 336.732 64.263 336.901C64.5875 337.071 64.7043 337.462 64.5485 337.774C64.3538 338.165 59.5518 347.363 51.531 350.594C51.4272 350.62 51.3493 350.633 51.2715 350.633Z" fill="white"/>
<path d="M316.202 280.554C316.202 280.554 310.531 271.343 309.986 261.312C309.441 251.28 311.634 247.124 314.645 245.925C317.656 244.727 317.877 248.414 319.434 250.59C320.992 252.765 324.132 251.528 325.287 244.74C326.443 237.952 330.712 226.461 339.525 224.272C349.259 221.849 344.041 233.314 341.588 237.783C339.149 242.251 337.241 248.349 338.85 250.003C340.459 251.658 342.964 248.596 345.352 251.436C348.246 254.863 339.252 267.187 334.087 270.184L316.202 280.554Z" fill="#72AE55"/>
<path d="M323.977 276.672C323.964 276.672 323.951 276.672 323.938 276.672C323.574 276.659 323.302 276.346 323.328 275.982C324.756 249.3 337.721 230.826 337.864 230.643C338.072 230.344 338.474 230.279 338.772 230.487C339.058 230.696 339.136 231.099 338.928 231.399C338.798 231.581 326.053 249.769 324.639 276.047C324.6 276.399 324.314 276.672 323.977 276.672Z" fill="white"/>
<path d="M324.716 268.986C324.612 268.986 324.496 268.959 324.405 268.907C320.771 266.888 318.759 260.895 318.668 260.647C318.551 260.309 318.733 259.944 319.083 259.827C319.421 259.709 319.797 259.905 319.901 260.244C319.914 260.296 321.835 266.002 325.028 267.774C325.339 267.943 325.456 268.347 325.287 268.66C325.17 268.855 324.937 268.986 324.716 268.986Z" fill="white"/>
<path d="M325.353 265.038C325.068 265.038 324.795 264.842 324.73 264.543C324.639 264.191 324.847 263.839 325.198 263.748C334.568 261.364 337.813 256.439 337.839 256.387C338.033 256.087 338.436 255.996 338.734 256.192C339.033 256.387 339.124 256.791 338.929 257.091C338.786 257.312 335.425 262.497 325.509 265.012C325.457 265.025 325.405 265.038 325.353 265.038Z" fill="white"/>
<path d="M175.021 260.296C175.021 260.296 162.575 257.247 161.926 233.861C161.225 208.613 164.976 179.156 150.297 176.759C135.618 174.361 127.377 192.432 127.572 213.42C127.74 231.855 135.138 271.852 175.021 279.695V260.296Z" fill="#72AE55"/>
<path opacity="0.2" d="M175.021 260.296C175.021 260.296 162.575 257.247 161.926 233.861C161.225 208.613 164.976 179.156 150.297 176.759C135.618 174.361 127.377 192.432 127.572 213.42C127.74 231.855 135.138 271.852 175.021 279.695V260.296Z" fill="black"/>
<path d="M175.022 277.285C174.983 277.285 174.944 277.285 174.905 277.272C165.924 275.63 158.63 270.679 153.192 262.537C137.072 238.395 142.147 193.318 143.821 185.449C143.899 185.097 144.237 184.875 144.587 184.941C144.937 185.019 145.158 185.357 145.093 185.709C143.445 193.5 138.409 238.031 154.282 261.807C159.512 269.637 166.534 274.405 175.151 275.982C175.502 276.047 175.736 276.386 175.671 276.737C175.593 277.063 175.32 277.285 175.022 277.285Z" fill="white"/>
<path d="M175.022 337.332C162.16 339.077 141.251 339.051 129.22 329.515C117.176 319.978 119.681 311.77 124.314 308.344C128.948 304.917 132.971 300.996 125.002 293.401C117.033 285.792 104.224 273.572 100.083 255.241C95.9432 236.91 97.9809 225.445 106.131 221.628C114.035 217.928 116.125 223.804 120.966 235.959C125.807 248.101 136.696 237.692 146.014 241.483C155.333 245.274 154.957 252.779 155.554 259.228C156.138 265.676 159.214 267.461 164.483 267.461C169.752 267.461 175.022 270.51 175.022 276.633V337.332Z" fill="#72AE55"/>
<path d="M175.021 316.057C174.969 316.057 174.905 316.044 174.853 316.031C174.295 315.874 160.992 311.992 141.615 294.13C120.979 275.109 111.245 246.577 111.141 246.29C111.024 245.952 111.206 245.574 111.543 245.47C111.881 245.352 112.257 245.535 112.361 245.874C112.452 246.16 122.095 274.379 142.484 293.166C161.589 310.793 175.06 314.741 175.19 314.78C175.54 314.884 175.735 315.236 175.644 315.588C175.566 315.861 175.307 316.057 175.021 316.057Z" fill="white"/>
<path d="M147.001 298.677C146.742 298.677 146.495 298.521 146.391 298.26C142.225 287.512 141.278 264.543 141.239 263.579C141.226 263.214 141.498 262.914 141.862 262.901C142.199 262.901 142.524 263.162 142.537 263.527C142.55 263.761 143.51 287.251 147.598 297.791C147.728 298.13 147.559 298.507 147.235 298.638C147.157 298.664 147.079 298.677 147.001 298.677Z" fill="white"/>
<path d="M146.884 314.129C144.872 314.129 143.47 313.972 143.301 313.946C142.951 313.907 142.691 313.581 142.73 313.217C142.769 312.865 143.094 312.591 143.457 312.643C143.574 312.656 155.657 314.024 161.199 308.344C161.446 308.083 161.861 308.083 162.12 308.331C162.38 308.579 162.38 308.995 162.133 309.256C158.071 313.425 151.115 314.129 146.884 314.129Z" fill="white"/>
<path d="M137.541 67.4258L136.152 59.3092L128.936 64.0775C128.21 62.6835 127.288 61.5761 126.185 60.7293L129.637 51.349L123.2 49.9028L118.45 58.9965C116.879 59.2441 115.218 59.7782 113.505 60.612L111.454 53.7592L103.745 59.8434L104.251 67.9209C102.694 69.6666 101.266 71.5688 99.9942 73.5751L93.6347 73.2624L89.1701 83.3072L94.634 85.6523C94.063 87.815 93.6866 89.9516 93.5568 92.0231L86.6133 98.433L88.002 106.55L95.2181 101.781C95.9449 103.175 96.8663 104.283 97.9695 105.129L94.5172 114.51L100.955 115.956L107.755 109.299C109.326 109.051 108.949 106.081 110.663 105.247L112.713 112.1L120.422 106.015L120.228 102.837C121.785 101.091 127.677 97.2474 128.949 95.2541L130.546 92.6093L135.01 82.5646L132.934 78.7864L130.624 73.8617L137.541 67.4258ZM114.011 94.1988C108.106 98.8629 106.302 99.8791 105.225 93.6516C104.16 87.4241 107.613 77.9135 113.518 73.2494C119.423 68.5853 121.694 68.2335 122.772 74.4741C123.849 80.7146 119.929 89.5347 114.011 94.1988Z" fill="#E0E0E0"/>
<path d="M123.212 49.9028L131.622 54.7754L126.872 63.8561L118.449 58.9965L123.212 49.9028Z" fill="#F5F5F5"/>
<path d="M144.562 64.1689L137.346 68.9503L128.936 64.0777L136.152 59.2964L144.562 64.1689Z" fill="#F5F5F5"/>
<path d="M143.407 87.411L137.943 85.0659L129.533 80.1934L134.997 82.5384L143.407 87.411Z" fill="#E0E0E0"/>
<path d="M94.5176 114.484L102.928 119.356L106.38 109.976L97.9699 105.104L94.5176 114.484Z" fill="#E0E0E0"/>
<path d="M121.124 116.946L112.701 112.074L110.65 105.221L119.06 110.093L121.124 116.946Z" fill="#E0E0E0"/>
<path d="M145.964 72.2982L144.563 64.1686L137.346 68.9369C136.62 67.5429 135.698 66.4355 134.595 65.5887L138.047 56.2083L131.61 54.7622L126.86 63.8559C125.289 64.1034 123.628 64.6376 121.915 65.4714L119.864 58.6186L112.155 64.7027L112.661 72.7802C111.104 74.526 109.676 76.4281 108.404 78.4345L102.045 78.1218L97.5802 88.1666L103.044 90.5116C102.473 92.6743 102.097 94.811 101.967 96.8825L95.0234 103.292L96.4121 111.409L103.628 106.641C104.355 108.035 105.276 109.142 106.38 109.989L102.927 119.369L109.365 120.815L114.115 111.722C115.685 111.474 117.347 110.94 119.06 110.106L121.123 116.959L128.833 110.875L128.326 102.797C129.884 101.051 131.311 99.1494 132.583 97.143L138.943 97.4557L143.407 87.4109L137.943 85.0659C138.528 82.9032 138.891 80.7665 139.021 78.695L145.964 72.2982ZM122.434 99.0712C116.529 103.735 110.87 102.472 109.793 96.231C108.729 90.0036 112.648 81.1704 118.554 76.5063C124.459 71.8422 130.117 73.1059 131.195 79.3465C132.259 85.574 128.339 94.4071 122.434 99.0712Z" fill="#EBEBEB"/>
<path d="M119.863 58.6318L111.453 53.7593L103.744 59.8304L112.154 64.703L119.863 58.6318Z" fill="#F5F5F5"/>
<path d="M103.744 59.8306L104.25 67.9081L112.66 72.7806L112.154 64.7031L103.744 59.8306Z" fill="#E0E0E0"/>
<path d="M108.404 78.4347L99.9936 73.5622L93.6211 73.2495L102.044 78.1221L108.404 78.4347Z" fill="#F5F5F5"/>
<path d="M93.6209 73.2495L89.1562 83.2943L97.5793 88.1668L102.044 78.1221L93.6209 73.2495Z" fill="#E0E0E0"/>
<path d="M101.967 96.8696L93.5438 91.9971L86.6133 98.407L95.0234 103.28L101.967 96.8696Z" fill="#F5F5F5"/>
<path d="M96.4121 111.396L88.002 106.523L86.6133 98.4067L95.0234 103.279L96.4121 111.396Z" fill="#E0E0E0"/>
<path d="M131.623 54.7754L123.213 49.9028L129.637 51.349L138.06 56.2215L131.623 54.7754Z" fill="#F5F5F5"/>
<path d="M99.8387 30.5822V18.4529L90.2216 22.8043C89.6375 20.5635 88.755 18.6483 87.6259 17.0589L93.6869 4.78628L86.2761 0.5L78.7226 11.8997C76.7888 11.7043 74.6863 11.8997 72.4669 12.512L71.4157 1.97219L60.955 8.04334L59.9037 19.8078C57.6844 21.7621 55.5818 24.0029 53.648 26.4392L46.0945 23.7945L38.6968 36.6663L44.7577 41.9037C43.6286 44.809 42.7331 47.7534 42.162 50.6587L32.5449 57.4594V69.5887L42.162 65.2372C42.7461 67.4781 43.6286 69.3932 44.7577 70.9827L38.6968 83.2553L46.0945 87.5415L53.648 76.1419C55.5818 76.3373 57.6844 76.1419 59.9037 75.5295L60.955 86.0694L71.4157 79.9982L72.4669 68.2337C75.5818 67.1915 78.9173 64.7682 80.864 62.3319L86.2761 64.2471L93.6739 51.3752L89.1314 47.4407C90.2605 44.5354 90.3903 39.9104 90.2086 37.3699L99.8387 30.5822ZM66.1853 60.8728C58.1516 65.5239 53.1678 62.2277 53.1678 52.9125C53.1678 43.6104 59.7999 32.1977 67.8336 27.5466C75.8673 22.8955 80.7343 26.2829 80.7343 35.585C80.7213 44.9002 74.2061 56.2217 66.1853 60.8728Z" fill="#E0E0E0"/>
<path d="M94.6993 5.37256L86.2762 0.5L78.7227 11.8997L87.1457 16.7722L94.6993 5.37256Z" fill="#F5F5F5"/>
<path d="M108.248 23.3257L99.8378 18.4531L90.2207 22.8046L98.6308 27.6771L108.248 23.3257Z" fill="#F5F5F5"/>
<path d="M69.365 90.9287L60.9549 86.0561L59.8906 75.5293L68.3137 80.4019L69.365 90.9287Z" fill="#E0E0E0"/>
<path d="M38.6836 83.2555L47.1067 88.1281L53.1547 75.8555L44.7446 70.9829L38.6836 83.2555Z" fill="#E0E0E0"/>
<path d="M108.248 35.4547V23.3255L98.6305 27.6769C98.0465 25.436 97.1639 23.5209 96.0348 21.9314L102.096 9.65884L94.698 5.37256L87.1445 16.7723C85.2107 16.5768 83.1081 16.7723 80.8888 17.3846L79.8375 6.84475L69.3768 12.9159L68.3256 24.6804C66.1062 26.6346 64.0037 28.8755 62.0699 31.3118L54.5164 28.667L47.1186 41.5389L53.1796 46.7763C52.0505 49.6815 51.1679 52.6259 50.5839 55.5312L40.9668 62.3319V74.4612L50.5839 70.1098C51.1679 72.3507 52.0505 74.2658 53.1796 75.8552L47.1186 88.1148L54.5164 92.4011L62.0699 81.0014C64.0037 81.1968 66.1062 81.0014 68.3256 80.3891L69.3768 90.9289L79.8375 84.8577L80.8888 73.0933C83.1081 71.139 85.2107 68.8982 87.1445 66.4619L94.698 69.1066L102.096 56.2347L96.0348 50.9974C97.1639 48.0921 98.0594 45.1477 98.6305 42.2424L108.248 35.4547ZM74.5942 65.7453C66.5605 70.3964 60.0582 66.6313 60.0582 57.3161C60.0582 48.0009 66.5735 36.6924 74.5942 32.0413C82.6279 27.3903 89.1302 31.1554 89.1302 40.4706C89.1432 49.7727 82.6279 61.0943 74.5942 65.7453Z" fill="#EBEBEB"/>
<path d="M53.6336 26.4392L62.0567 31.3117L54.5032 28.667L46.0801 23.7944L53.6336 26.4392Z" fill="#F0F0F0"/>
<path d="M46.0878 23.7937L38.6895 36.6699L47.1097 41.5451L54.5081 28.6688L46.0878 23.7937Z" fill="#F5F5F5"/>
<path d="M38.6836 36.6665L47.1067 41.5391L53.1547 46.7764L44.7446 41.9039L38.6836 36.6665Z" fill="#E0E0E0"/>
<path d="M42.1484 50.6587L50.5585 55.5312L40.9413 62.332L32.5312 57.4594L42.1484 50.6587Z" fill="#F5F5F5"/>
<path d="M32.5312 57.4595L40.9413 62.332V74.4613L32.5312 69.5887V57.4595Z" fill="#E0E0E0"/>
<path d="M79.8389 6.84472L71.4158 1.97217L60.9551 8.04332L69.3652 12.9159L79.8389 6.84472Z" fill="#F5F5F5"/>
<path d="M187.806 354.777L309.83 284.046C311.076 283.33 311.076 282.157 309.83 281.441L298.539 274.888C297.293 274.171 295.281 274.171 294.048 274.888L171.985 345.618C170.739 346.334 170.739 347.507 171.985 348.223L183.303 354.79C184.561 355.493 186.573 355.493 187.806 354.777Z" fill="#E0E0E0"/>
<path d="M306.469 11.0139L196.45 74.774C193.348 76.5719 190.83 80.9494 190.83 84.5452V346.504C190.83 350.099 193.348 351.559 196.45 349.761L306.469 286.001C309.571 284.203 312.089 279.825 312.089 276.229V14.2709C312.089 10.6751 309.571 9.21599 306.469 11.0139Z" fill="#455A64"/>
<path d="M196.449 74.7741L306.468 11.0139C309.246 9.41147 311.543 10.4016 311.997 13.2027C311.569 9.8414 309.272 6.11533 306.468 4.49983L301.887 1.84207C298.785 0.0441786 293.749 0.0441786 290.648 1.84207L180.641 65.6152C179.084 66.5142 177.682 68.0645 176.67 69.8233L192.491 78.9952C193.49 77.2234 194.905 75.673 196.449 74.7741Z" fill="#37474F"/>
<path d="M175.023 337.332C175.023 340.928 177.541 345.305 180.642 347.103L185.224 349.761C188.027 351.389 192.401 351.533 195.503 350.217C192.855 351.22 190.831 349.722 190.831 346.504V84.5455C190.831 82.7476 191.454 80.7543 192.479 78.9824L176.658 69.8105C175.646 71.5824 175.01 73.5757 175.01 75.3736L175.023 337.332Z" fill="#263238"/>
<path d="M199.474 109.69L303.445 49.4341C305.314 48.3528 306.82 49.2257 306.82 51.3884V245.222C306.82 247.385 305.314 250.004 303.445 251.085L199.474 311.341C197.618 312.422 196.1 311.549 196.1 309.386V115.539C196.1 113.39 197.618 110.771 199.474 109.69Z" fill="white"/>
<path d="M251.465 52.8345C250.375 53.4729 249.492 55.0103 249.492 56.274C249.492 57.5377 250.375 58.0589 251.465 57.4205C252.555 56.7821 253.438 55.2448 253.438 53.981C253.438 52.7173 252.555 52.1962 251.465 52.8345Z" fill="#37474F"/>
<path d="M251.466 290.522C247.157 293.023 243.666 299.094 243.666 304.097C243.666 309.087 247.157 311.119 251.466 308.618C255.775 306.116 259.266 300.045 259.266 295.042C259.266 290.053 255.775 288.033 251.466 290.522Z" fill="#37474F"/>
<path d="M232.79 73.002C230.61 74.2657 228.832 77.3404 228.832 79.8809C228.832 82.4084 230.597 83.4376 232.79 82.1739C234.971 80.9101 236.749 77.8355 236.749 75.295C236.749 72.7545 234.971 71.7252 232.79 73.002Z" fill="#37474F"/>
<path d="M242.459 72.1422C242.459 73.8229 243.718 74.4743 245.275 73.5753L271.284 58.5017C272.842 57.6027 274.101 55.5052 274.101 53.8115C274.101 52.1178 272.842 51.4794 271.284 52.3784L245.275 67.452C243.718 68.351 242.459 70.4485 242.459 72.1422Z" fill="#37474F"/>
<path d="M183.77 118.08C185.522 119.096 186.937 121.558 186.937 123.578C186.937 125.597 185.522 126.418 183.77 125.415C182.018 124.399 180.604 121.936 180.604 119.917C180.604 117.885 182.018 117.064 183.77 118.08Z" fill="#37474F"/>
<path d="M183.77 142.534C185.522 143.55 186.937 146.012 186.937 148.032C186.937 150.051 185.522 150.872 183.77 149.869C182.018 148.852 180.604 146.39 180.604 144.371C180.604 142.351 182.018 141.531 183.77 142.534Z" fill="#37474F"/>
<path d="M182.796 118.562C184.548 119.578 185.962 122.041 185.962 124.06C185.962 126.079 184.548 126.9 182.796 125.897C181.044 124.881 179.629 122.418 179.629 120.399C179.629 118.38 181.044 117.559 182.796 118.562Z" fill="#455A64"/>
<path d="M182.796 143.029C184.548 144.045 185.962 146.507 185.962 148.527C185.962 150.546 184.548 151.367 182.796 150.364C181.044 149.347 179.629 146.885 179.629 144.866C179.629 142.846 181.044 142.013 182.796 143.029Z" fill="#455A64"/>
<path d="M327.909 57.5114C327.909 55.3487 326.404 54.4758 324.535 55.5572L312.089 62.7748L220.564 115.813C218.695 116.894 217.189 119.513 217.189 121.675V315.509C217.189 317.672 218.695 318.545 220.564 317.464L312.115 264.4L324.522 257.208C326.378 256.127 327.896 253.508 327.896 251.345L327.909 57.5114Z" fill="white" stroke="#72AE55" stroke-miterlimit="10"/>
<path d="M219.059 318.584C218.631 318.584 218.215 318.48 217.852 318.272C217.008 317.776 216.541 316.799 216.541 315.51V121.676C216.541 119.278 218.163 116.451 220.24 115.253L311.765 62.2148L312.414 63.3483L220.889 116.386C219.241 117.337 217.839 119.774 217.839 121.689V315.523C217.839 316.317 218.085 316.904 218.501 317.151C218.929 317.399 219.552 317.307 220.24 316.917L311.791 263.853L312.44 264.986L220.889 318.05C220.253 318.402 219.63 318.584 219.059 318.584Z" fill="#72AE55" stroke="#72AE55" stroke-miterlimit="10"/>
<path d="M312.452 264.973L311.803 263.839L324.21 256.648C325.858 255.684 327.26 253.261 327.26 251.345V57.4985C327.26 56.7037 327.013 56.1175 326.598 55.8699C326.183 55.6224 325.547 55.7136 324.859 56.1044L312.413 63.3221L311.764 62.1886L324.21 54.971C325.313 54.3326 326.39 54.2414 327.247 54.7365C328.091 55.2315 328.558 56.2087 328.558 57.4854V251.332C328.558 253.73 326.936 256.557 324.859 257.755L312.452 264.973Z" fill="#72AE55" stroke="#72AE55" stroke-miterlimit="10"/>
<path d="M272.557 102.563C284.199 95.8146 293.647 101.286 293.647 114.784C293.647 128.281 284.212 144.697 272.557 151.445C260.915 158.194 251.467 152.722 251.467 139.225C251.467 125.727 260.902 109.312 272.557 102.563Z" fill="#72AE55"/>
<path d="M272.556 113.181C276.333 110.992 279.396 112.764 279.396 117.142C279.396 121.519 276.333 126.848 272.556 129.037C268.78 131.225 265.717 129.453 265.717 125.076C265.717 120.698 268.767 115.37 272.556 113.181Z" fill="#72AE55"/>
<path d="M285.885 136.541C285.885 129.349 280.849 126.431 274.645 130.027L270.765 132.281C264.561 135.876 259.525 144.631 259.525 151.823V153.764C263.107 154.963 267.637 154.311 272.556 151.458C277.617 148.527 282.251 143.772 285.885 138.222V136.541Z" fill="#72AE55"/>
<path opacity="0.7" d="M272.556 113.181C276.333 110.992 279.396 112.764 279.396 117.142C279.396 121.519 276.333 126.848 272.556 129.037C268.78 131.225 265.717 129.453 265.717 125.076C265.717 120.698 268.767 115.37 272.556 113.181Z" fill="white"/>
<path opacity="0.7" d="M285.885 136.541C285.885 129.349 280.849 126.431 274.645 130.027L270.765 132.281C264.561 135.876 259.525 144.631 259.525 151.823V153.764C263.107 154.963 267.637 154.311 272.556 151.458C277.617 148.527 282.251 143.772 285.885 138.222V136.541Z" fill="white"/>
<path d="M231.751 181.214L258.889 165.489C260.135 164.773 261.135 165.359 261.135 166.792V167.691C261.135 169.137 260.122 170.883 258.889 171.6L231.751 187.325C230.505 188.041 229.506 187.455 229.506 186.022V185.123C229.493 183.69 230.505 181.944 231.751 181.214Z" fill="#72AE55"/>
<path opacity="0.1" d="M231.751 181.214L258.889 165.489C260.135 164.773 261.135 165.359 261.135 166.792V167.691C261.135 169.137 260.122 170.883 258.889 171.6L231.751 187.325C230.505 188.041 229.506 187.455 229.506 186.022V185.123C229.493 183.69 230.505 181.944 231.751 181.214Z" fill="black"/>
<path d="M230.623 200.21L312.726 152.631C313.349 152.266 313.855 152.566 313.855 153.282V162.897C313.855 163.614 313.349 164.487 312.726 164.851L230.623 212.43C230 212.795 229.494 212.496 229.494 211.779V202.164C229.507 201.435 230 200.562 230.623 200.21Z" fill="#72AE55"/>
<path opacity="0.2" d="M230.623 200.21L312.726 152.631C313.349 152.266 313.855 152.566 313.855 153.282V162.897C313.855 163.614 313.349 164.487 312.726 164.851L230.623 212.43C230 212.795 229.494 212.496 229.494 211.779V202.164C229.507 201.435 230 200.562 230.623 200.21Z" fill="white"/>
<path d="M231.751 223.999L258.889 208.274C260.135 207.558 261.135 208.144 261.135 209.577V210.476C261.135 211.909 260.122 213.668 258.889 214.384L231.751 230.109C230.505 230.826 229.506 230.24 229.506 228.807V227.908C229.493 226.461 230.505 224.716 231.751 223.999Z" fill="#72AE55"/>
<path opacity="0.1" d="M231.751 223.999L258.889 208.274C260.135 207.558 261.135 208.144 261.135 209.577V210.476C261.135 211.909 260.122 213.668 258.889 214.384L231.751 230.109C230.505 230.826 229.506 230.24 229.506 228.807V227.908C229.493 226.461 230.505 224.716 231.751 223.999Z" fill="black"/>
<path d="M230.623 242.981L312.726 195.402C313.349 195.038 313.855 195.337 313.855 196.054V205.669C313.855 206.385 313.349 207.258 312.726 207.623L230.623 255.202C230 255.567 229.494 255.267 229.494 254.55V244.936C229.507 244.219 230 243.333 230.623 242.981Z" fill="#72AE55"/>
<path opacity="0.2" d="M230.623 242.981L312.726 195.402C313.349 195.038 313.855 195.337 313.855 196.054V205.669C313.855 206.385 313.349 207.258 312.726 207.623L230.623 255.202C230 255.567 229.494 255.267 229.494 254.55V244.936C229.507 244.219 230 243.333 230.623 242.981Z" fill="white"/>
<path d="M263.38 248.44L295.787 229.653C297.033 228.937 298.033 229.523 298.033 230.956V241.027C298.033 242.46 297.02 244.219 295.787 244.936L263.38 263.722C262.134 264.439 261.135 263.853 261.135 262.419V252.349C261.135 250.903 262.134 249.157 263.38 248.44Z" fill="#72AE55"/>
<path opacity="0.1" d="M263.38 248.44L295.787 229.653C297.033 228.937 298.033 229.523 298.033 230.956V241.027C298.033 242.46 297.02 244.219 295.787 244.936L263.38 263.722C262.134 264.439 261.135 263.853 261.135 262.419V252.349C261.135 250.903 262.134 249.157 263.38 248.44Z" fill="black"/>
<path d="M340.213 205.994C340.213 205.994 324.262 183.912 323.302 181.293C322.562 179.313 323.354 176.368 323.535 175C323.717 173.632 323.977 170.584 324.21 169.737C324.613 168.252 322.692 168.564 321.628 169.906C320.524 171.287 320.174 173.971 319.629 174.414C319.084 174.857 314.827 168.642 312.595 165.763C310.375 162.884 308.986 161.151 307.637 162.22C306.663 162.988 307.39 164.669 308.999 167.105C310.609 169.554 311.323 170.688 311.569 171.209C311.816 171.73 310.492 171.782 309.778 172.877C309.22 173.736 309.739 175.131 308.999 175.795C308.26 176.459 307.572 177.658 308.377 179.013C309.415 180.733 311.478 183.182 313.866 184.85C316.254 186.504 317.215 187.09 318.617 189.344C320.018 191.598 332.724 214.619 333.581 216C334.437 217.381 336.086 220.195 338.591 220.273C341.095 220.351 361.602 202.633 362.653 201.747C366.027 198.92 367.091 198.503 367.675 201.057C367.857 201.851 367.974 202.763 368.104 203.793C368.506 207.024 370.699 218.567 370.699 218.567C370.699 218.567 381.069 223.609 389.609 221.12C398.149 218.632 401.017 215.049 401.017 215.049L396.747 208.066C397.916 205.187 403.276 193.513 404.963 185.345L378.227 181.006C377.682 180.889 376.799 180.667 375.683 180.368C374.217 179.977 370.531 178.674 367.675 181.163C358.474 189.214 340.213 205.994 340.213 205.994Z" fill="#FFA8A7"/>
<path d="M393.217 341.41L388.428 348.093C388.428 348.093 390.647 349.396 395.384 349.578C399.667 349.748 400.848 348.328 401.004 347.989C401.731 346.425 400.602 343.611 400.29 341.201L393.217 341.41Z" fill="#37474F"/>
<path d="M388.687 344.875C388.687 344.875 382.886 344.498 378.862 344.002C374.852 343.494 371.672 345.462 372.62 347.116C373.567 348.771 375.773 350.152 379.213 351.311C382.159 352.301 385.702 353.031 388.778 353.956C391.932 354.907 393.956 355.988 395.734 355.376C397.733 354.686 398.577 353.891 398.408 352.432C398.239 350.973 396.799 346.282 396.799 346.282L388.687 344.875Z" fill="#37474F"/>
<path d="M401.004 334.687C401.004 334.687 400.277 340.758 400.225 342.061C400.173 343.364 394.32 343.781 393.217 341.397L393.035 333.971L401.004 334.687Z" fill="#F28F8F"/>
<path d="M395.112 338.426L397.201 347.637C397.201 347.637 397.396 348.758 392.62 349.474C387.844 350.191 380.342 346.96 379.07 346.308C377.798 345.657 377.642 344.354 382.341 344.615C387.039 344.875 388.7 344.888 388.7 344.888L387.182 340.81L395.112 338.426Z" fill="#FFA8A7"/>
<path d="M404.964 185.358L408.273 184.446C408.273 184.446 415.204 206.424 415.957 208.535C416.722 210.646 417.579 212.912 416.099 215.531C414.321 218.645 404.964 231.191 404.964 231.191L399.02 225.354L405.755 212.965L399.798 200.835L404.964 185.358Z" fill="#F28F8F"/>
<path d="M370.932 156.8C370.932 156.8 368.285 152.539 371.075 147.328C374.359 141.192 381.718 138.182 390.465 139.342C394.514 139.876 399.278 143.211 401.899 148.292C404.78 153.881 405.04 165.138 405.754 169.398L370.932 156.8Z" fill="#37474F"/>
<path d="M370.725 159.197C370.725 159.197 368.648 163.17 369.011 163.535C369.375 163.9 370.764 164.187 370.764 164.187L370.725 159.197Z" fill="#FFA8A7"/>
<path d="M377.046 146.638C374.788 148.123 370.895 150.82 370.726 159.757C370.557 168.929 371.842 171.873 373.192 172.942C374.1 173.658 379.435 173.294 381.719 172.759C384.003 172.225 390.596 168.955 392.958 163.991C395.749 158.155 395.177 149.608 391.037 147.12C385.197 143.628 378.954 145.387 377.046 146.638Z" fill="#FFA8A7"/>
<path d="M401.005 215.075C405.003 221.329 408.818 226.84 409.623 233.862C411.336 248.701 405.716 265.664 404.522 276.634C404.522 276.634 408.299 281.558 408.299 287.356C408.299 291.89 401.005 334.687 401.005 334.687C401.005 334.687 395.71 336.303 393.023 333.984L388.014 255.254L390.648 245.665L401.005 215.075Z" fill="#72AE55"/>
<path opacity="0.2" d="M401.005 215.075C405.003 221.329 408.818 226.84 409.623 233.862C411.336 248.701 405.716 265.664 404.522 276.634C404.522 276.634 408.299 281.558 408.299 287.356C408.299 291.89 401.005 334.687 401.005 334.687C401.005 334.687 395.71 336.303 393.023 333.984L388.014 255.254L390.648 245.665L401.005 215.075Z" fill="black"/>
<path d="M388.025 255.241L390.66 245.652C390.66 245.652 397.967 243.88 404.949 239.959C404.949 239.959 402.25 244.897 394.489 247.594L390.452 259.918L390.102 288.111L388.025 255.241Z" fill="#72AE55"/>
<path opacity="0.3" d="M388.025 255.241L390.66 245.652C390.66 245.652 397.967 243.88 404.949 239.959C404.949 239.959 402.25 244.897 394.489 247.594L390.452 259.918L390.102 288.111L388.025 255.241Z" fill="black"/>
<path d="M401.005 215.075C403.146 218.58 408.26 224.586 407.183 230.344C405.859 237.327 402.121 242.239 390.661 245.652L379.915 284.711C379.915 284.711 385.508 289.961 387.222 294.964C388.935 299.967 395.113 338.426 395.113 338.426C395.113 338.426 393.205 341.553 387.17 340.798C387.17 340.798 366.131 292.567 364.639 289.453C363.159 286.353 362.186 284.021 362.861 278.966C363.536 273.911 370.7 218.58 370.7 218.58L401.005 215.075Z" fill="#72AE55"/>
<path opacity="0.2" d="M401.005 215.075C403.146 218.58 408.26 224.586 407.183 230.344C405.859 237.327 402.121 242.239 390.661 245.652L379.915 284.711C379.915 284.711 385.508 289.961 387.222 294.964C388.935 299.967 395.113 338.426 395.113 338.426C395.113 338.426 393.205 341.553 387.17 340.798C387.17 340.798 366.131 292.567 364.639 289.453C363.159 286.353 362.186 284.021 362.861 278.966C363.536 273.911 370.7 218.58 370.7 218.58L401.005 215.075Z" fill="black"/>
<path d="M404.964 185.358L378.228 181.019C377.683 180.902 376.8 180.681 375.684 180.381C375.684 180.381 374.542 197.213 367.689 201.07C367.845 201.877 367.988 202.776 368.118 203.806C368.52 207.037 370.713 218.58 370.713 218.58C370.713 218.58 381.083 223.622 389.623 221.133C398.163 218.645 401.031 215.062 401.031 215.062L396.761 208.079C397.904 205.2 403.277 193.539 404.964 185.358Z" fill="#72AE55"/>
<path opacity="0.7" d="M404.964 185.358L378.228 181.019C377.683 180.902 376.8 180.681 375.684 180.381C375.684 180.381 374.542 197.213 367.689 201.07C367.845 201.877 367.988 202.776 368.118 203.806C368.52 207.037 370.713 218.58 370.713 218.58C370.713 218.58 381.083 223.622 389.623 221.133C398.163 218.645 401.031 215.062 401.031 215.062L396.761 208.079C397.904 205.2 403.277 193.539 404.964 185.358Z" fill="white"/>
<path d="M397.903 205.343C397.799 205.59 389.311 210.163 386.793 210.854C390.764 210.658 394.074 209.72 396.747 208.092L397.903 205.343Z" fill="#72AE55"/>
<path d="M376.371 147.094C376.371 147.094 375.126 155.562 378.15 160.539C378.15 160.539 379.279 157.164 382.134 157.816C385.002 158.467 385.132 162.206 383.133 164.33C381.135 166.454 378.915 165.685 378.915 165.685C378.915 165.685 378.461 171.808 378.227 176.941C377.994 181.892 376.618 193.266 382.381 197.839C388.13 202.411 402.562 203.962 409.324 194.464C413.088 189.188 408.091 179.86 405.768 169.398C403.626 159.783 402.432 145.53 392.257 143.237C382.082 140.944 376.371 147.094 376.371 147.094Z" fill="#37474F"/>
<path d="M413.671 31.377L411.53 32.6147C411.699 31.82 411.828 31.0383 411.828 30.2827C411.828 25.9182 408.778 24.1594 405.015 26.3351C403.925 26.9735 402.899 27.8855 401.991 28.9408C401.991 28.9277 401.991 28.9147 401.991 28.9147C401.991 23.052 397.89 20.6678 392.828 23.5992C387.766 26.5305 383.665 33.67 383.665 39.5327C383.665 39.8324 383.678 40.119 383.704 40.3926C382.627 40.1971 381.355 40.4707 379.979 41.2655C376.215 43.4412 373.165 48.7437 373.165 53.1081C373.165 53.7074 373.23 54.2546 373.334 54.7497L372.192 55.4141C369.09 57.212 366.572 60.7296 366.572 63.2571C366.572 65.7846 369.09 66.3839 372.192 64.586L413.671 40.5489C416.773 38.751 419.291 35.2334 419.291 32.7059C419.291 30.1784 416.773 29.5791 413.671 31.377Z" fill="#EBEBEB"/>
</g>
<defs>
<clipPath id="clip0_886_828">
<rect width="458" height="427" fill="white" transform="translate(0.5 0.5)"/>
</clipPath>
</defs>
</svg>
