<svg width="230" height="63" viewBox="0 0 230 63" fill="none" xmlns="http://www.w3.org/2000/svg">
<path d="M34.7734 7.58758C34.7778 5.02635 32.7051 2.94645 30.1439 2.94199C27.5827 2.93754 25.5027 5.01022 25.4983 7.57146C25.4938 10.1327 27.5665 12.2126 30.1278 12.217C32.689 12.2215 34.7689 10.1488 34.7734 7.58758Z" stroke="#72AE55" stroke-width="4" stroke-miterlimit="10"/>
<path d="M24.9807 61.7386C38.5938 61.7386 49.6293 50.703 49.6293 37.09C49.6293 23.477 38.5938 12.4414 24.9807 12.4414C11.3676 12.4414 0.332031 23.477 0.332031 37.09C0.332031 50.703 11.3676 61.7386 24.9807 61.7386Z" fill="#72AE55"/>
<path opacity="0.5" d="M24.9807 61.7386C38.5938 61.7386 49.6293 50.703 49.6293 37.09C49.6293 23.477 38.5938 12.4414 24.9807 12.4414C11.3676 12.4414 0.332031 23.477 0.332031 37.09C0.332031 50.703 11.3676 61.7386 24.9807 61.7386Z" fill="white"/>
<g opacity="0.5">
<path d="M46.775 40.5078C45.1666 49.5818 38.3041 56.8464 29.2033 58.6558C20.1963 60.4384 10.7604 56.136 6.09601 48.2683C1.37805 40.3201 2.16885 29.8522 8.21373 22.8021C14.1916 15.8324 23.9224 13.2456 32.5809 16.3283C42.4055 19.84 48.3968 30.2543 46.775 40.5078C46.4802 42.411 49.3753 43.2286 49.6835 41.312C51.3053 30.9781 46.6142 20.5101 37.4329 15.2694C28.3053 10.0556 16.7114 11.2485 8.72306 18.0171C0.7615 24.7724 -2.16042 36.3394 1.67292 46.0567C5.49286 55.7607 15.0762 62.2747 25.5442 62.0602C37.4061 61.8056 47.606 52.9594 49.6835 41.312C50.0186 39.4087 47.1235 38.6045 46.775 40.5078Z" fill="white"/>
</g>
<path d="M24.981 58.5087C36.8101 58.5087 46.3995 48.9193 46.3995 37.0903C46.3995 25.2612 36.8101 15.6719 24.981 15.6719C13.1519 15.6719 3.5625 25.2612 3.5625 37.0903C3.5625 48.9193 13.1519 58.5087 24.981 58.5087Z" fill="white"/>
<path d="M32.999 10.1664L26.5742 9.09033L25.8945 13.1488L32.3192 14.2249L32.999 10.1664Z" fill="#72AE55"/>
<path opacity="0.5" d="M32.999 10.1664L26.5742 9.09033L25.8945 13.1488L32.3192 14.2249L32.999 10.1664Z" fill="white"/>
<path d="M17.8906 27.7612L22.5684 36.4599L24.5521 34.9856L17.8906 27.7612Z" fill="#E1E1E1"/>
<path d="M14.9688 43.9662L23.7881 39.5163L22.354 37.5059L14.9688 43.9662Z" fill="#F5F5F5"/>
<path d="M34.5518 30.9917L25.7324 35.4416L27.1532 37.4521L34.5518 30.9917Z" fill="#F5F5F5"/>
<path d="M27.3664 21.1938L23.7207 34.4765L27.0179 34.9724L27.3664 21.1938Z" fill="#ECECEC"/>
<path d="M31.8707 46.3654L27.1929 37.6533L25.2227 39.1411L31.8707 46.3654Z" fill="#E1E1E1"/>
<path d="M22.6621 52.5173L26.3078 39.2347L23.0106 38.7388L22.6621 52.5173Z" fill="#ECECEC"/>
<path d="M40.261 39.0601L26.9113 35.7227L26.4824 39.0199L40.261 39.0601Z" fill="#ECECEC"/>
<path d="M9.3125 34.356L22.4879 38.3635L23.0911 35.0797L9.3125 34.356Z" fill="#ECECEC"/>
<path d="M40.2884 28.592C41.039 28.096 41.803 27.6001 42.5536 27.0908C42.7814 26.9702 42.9825 26.7959 43.1165 26.5681C43.2908 26.3804 43.4114 26.1526 43.4784 25.8845C43.5588 25.6164 43.5722 25.3484 43.5186 25.0803C43.5052 24.8123 43.4248 24.5576 43.2773 24.3297C42.9959 23.9008 42.5938 23.5255 42.0711 23.4049C41.8968 23.3781 41.7092 23.3513 41.5349 23.3379C41.173 23.3379 40.8379 23.4317 40.5163 23.606C39.7657 24.1019 39.0017 24.5978 38.2511 25.1071C38.0233 25.2278 37.8222 25.402 37.6882 25.6298C37.5139 25.8175 37.3933 26.0453 37.3263 26.3134C37.2459 26.5815 37.2325 26.8495 37.2861 27.1176C37.2995 27.3857 37.3799 27.6403 37.5273 27.8682C37.8088 28.2971 38.2109 28.6724 38.7336 28.793C38.9079 28.8198 39.0955 28.8466 39.2698 28.86C39.6317 28.86 39.9667 28.7662 40.2884 28.592Z" fill="#B3DCA0"/>
<path d="M9.20443 49.341C9.95501 48.8451 10.719 48.3491 11.4696 47.8398C11.6974 47.7192 11.8985 47.545 12.0325 47.3171C12.2068 47.1295 12.3274 46.9016 12.3944 46.6335C12.4748 46.3655 12.4882 46.0974 12.4346 45.8293C12.4212 45.5613 12.3408 45.3066 12.1934 45.0788C11.9119 44.6498 11.5098 44.2746 10.9871 44.1539C10.8128 44.1271 10.6252 44.1003 10.4509 44.0869C10.089 44.0869 9.75396 44.1807 9.43228 44.355C8.6817 44.8509 7.91771 45.3468 7.16713 45.8561C6.93927 45.9768 6.73822 46.151 6.60419 46.3789C6.42995 46.5665 6.30932 46.7944 6.2423 47.0624C6.16188 47.3305 6.14848 47.5986 6.20209 47.8666C6.21549 48.1347 6.29591 48.3894 6.44335 48.6172C6.72482 49.0461 7.12692 49.4214 7.64965 49.542C7.82389 49.5688 8.01153 49.5957 8.18578 49.6091C8.54767 49.6225 8.88275 49.5286 9.20443 49.341Z" fill="#B3DCA0"/>
<path d="M34.2439 51.9276C34.8069 52.6379 35.3698 53.3349 35.9462 54.0453C36.1338 54.2463 36.3483 54.3803 36.5895 54.4608C36.8308 54.5814 37.0854 54.6484 37.3669 54.635C37.6484 54.6484 37.903 54.5814 38.1443 54.4608C38.399 54.3803 38.6134 54.2463 38.7877 54.0453C39.1361 53.6566 39.4042 53.1607 39.3774 52.6245C39.3506 52.4503 39.3238 52.2626 39.3104 52.0884C39.2166 51.7533 39.0423 51.4584 38.7877 51.2038C38.2247 50.4934 37.6618 49.7964 37.0854 49.0861C36.8978 48.885 36.6833 48.751 36.4421 48.6706C36.2008 48.5499 35.9462 48.4829 35.6647 48.4963C35.3832 48.4829 35.1286 48.5499 34.8873 48.6706C34.6326 48.751 34.4182 48.885 34.2439 49.0861C33.8955 49.4748 33.6274 49.9707 33.6542 50.5068C33.681 50.6811 33.7078 50.8687 33.7212 51.0429C33.8284 51.378 33.9893 51.6729 34.2439 51.9276Z" fill="#B3DCA0"/>
<path d="M11.2029 23.7405C11.7659 24.4509 12.3288 25.1479 12.9051 25.8583C13.0928 26.0593 13.3072 26.1933 13.5485 26.2738C13.7898 26.3944 14.0444 26.4614 14.3259 26.448C14.6074 26.4614 14.862 26.3944 15.1033 26.2738C15.3579 26.1933 15.5724 26.0593 15.7466 25.8583C16.0951 25.4696 16.3632 24.9736 16.3364 24.4375C16.3096 24.2633 16.2828 24.0756 16.2694 23.9014C16.1755 23.5663 16.0013 23.2714 15.7466 23.0168C15.1837 22.3064 14.6208 21.6094 14.0444 20.8991C13.8568 20.698 13.6423 20.564 13.4011 20.4836C13.1598 20.3629 12.9051 20.2959 12.6237 20.3093C12.3422 20.2959 12.0875 20.3629 11.8463 20.4836C11.5916 20.564 11.3772 20.698 11.2029 20.8991C10.8544 21.2877 10.5864 21.7837 10.6132 22.3198C10.64 22.494 10.6668 22.6817 10.6802 22.8559C10.7874 23.191 10.9617 23.4859 11.2029 23.7405Z" fill="#B3DCA0"/>
<path d="M10.0776 32.788L8.49604 36.112L7.55781 35.9512L7.31655 33.7262L6.33811 35.7501L5.39988 35.5893L4.98438 31.9302L5.8824 32.0776L6.13706 34.4098L7.16911 32.2921L7.97331 32.4261L8.21457 34.7851L9.23322 32.6405L10.0776 32.788Z" fill="#72AE55"/>
<path d="M37.4864 27.9224L25.209 34.557L27.1257 37.3717L37.4864 27.9224Z" fill="#72AE55"/>
<path opacity="0.3" d="M26.5352 35.6426L37.4857 27.9224L27.1249 37.3717L26.5352 35.6426Z" fill="black"/>
<path d="M11.0957 45.6016L23.6814 39.6104L21.9122 36.6885L11.0957 45.6016Z" fill="#72AE55"/>
<path opacity="0.5" d="M11.0957 45.6016L23.6814 39.6104L21.9122 36.6885L11.0957 45.6016Z" fill="white"/>
<path opacity="0.3" d="M22.2475 38.5107L11.1094 45.6144L23.6817 39.6098C23.6817 39.6098 23.6146 37.5457 23.5476 37.7199C23.4672 37.8808 22.2475 38.5107 22.2475 38.5107Z" fill="black"/>
<path d="M27.1254 35.3346C27.9832 36.7151 27.5811 38.538 26.2407 39.4092C24.887 40.2804 23.1044 39.8783 22.2466 38.4977C21.3887 37.1172 21.7908 35.2944 23.1312 34.4232C24.4849 33.5519 26.2675 33.9674 27.1254 35.3346Z" fill="#B3DCA0"/>
<path d="M26.0258 13.3394C27.2321 13.4064 28.2239 13.5002 29.3096 13.7013C30.3148 13.8889 31.2933 14.1436 32.2583 14.4787C32.7542 14.6529 33.3842 14.2776 33.4914 13.7817C33.6121 13.2188 33.3172 12.7229 32.7945 12.5486C30.6097 11.798 28.3312 11.4764 26.0258 11.3423C25.5031 11.3155 24.9937 11.8248 25.0205 12.3476C25.0474 12.9105 25.4629 13.3126 26.0258 13.3394Z" fill="#B3DCA0"/>
<path d="M31.4684 18.6743L30.5034 22.0788L29.7126 21.8509L28.7207 19.6126L28.198 21.422L27.2598 21.1539L28.2248 17.7495L29.0156 17.9774L30.0074 20.2157L30.5302 18.4063L31.4684 18.6743Z" fill="#72AE55"/>
<path d="M42.7534 42.9742L42.539 43.7248L39.8047 42.9474L40.7697 39.543L43.437 40.307L43.2225 41.0575L41.5069 40.5616L41.3461 41.138L42.8606 41.5669L42.6596 42.2906L41.145 41.8617L40.9708 42.4783L42.7534 42.9742Z" fill="#72AE55"/>
<path d="M18.0117 55.2652L18.5344 54.6486C18.7757 54.9301 19.1644 55.1981 19.5665 55.3054C19.9686 55.4126 20.1562 55.3456 20.1965 55.1847C20.3439 54.6486 18.3066 54.4878 18.6685 53.2279C18.8427 52.6247 19.4727 52.2628 20.4913 52.5577C20.9336 52.6783 21.3625 52.9196 21.644 53.2011L21.1481 53.831C20.8666 53.563 20.5717 53.3887 20.2769 53.2949C19.8748 53.1743 19.6871 53.2681 19.6335 53.4423C19.4861 53.965 21.5234 54.1259 21.1749 55.3724C21.0007 55.9621 20.3707 56.324 19.352 56.0425C18.7757 55.8817 18.2664 55.5734 18.0117 55.2652Z" fill="#B3DCA0"/>
<path d="M62.432 46.5V24.1H69.984C71.7973 24.1 73.2267 24.3933 74.272 24.98C75.3173 25.556 76.0587 26.3027 76.496 27.22C76.9333 28.1267 77.152 29.0813 77.152 30.084C77.152 31.076 76.912 31.9827 76.432 32.804C75.9627 33.6147 75.232 34.244 74.24 34.692C75.488 35.108 76.4107 35.8067 77.008 36.788C77.616 37.7693 77.92 38.82 77.92 39.94C77.92 40.7187 77.792 41.4973 77.536 42.276C77.28 43.0547 76.8587 43.764 76.272 44.404C75.696 45.0333 74.9333 45.54 73.984 45.924C73.0347 46.308 71.8613 46.5 70.464 46.5H62.432ZM66.24 42.98H70.72C71.6053 42.98 72.2933 42.8307 72.784 42.532C73.2747 42.2227 73.616 41.8387 73.808 41.38C74.0107 40.9107 74.112 40.4413 74.112 39.972C74.112 39.4173 73.9947 38.8893 73.76 38.388C73.536 37.876 73.1093 37.46 72.48 37.14C71.8613 36.8093 70.9653 36.644 69.792 36.644H66.24V42.98ZM66.24 33.156H69.472C70.784 33.156 71.7547 32.9 72.384 32.388C73.024 31.8653 73.344 31.1827 73.344 30.34C73.344 29.9027 73.2587 29.476 73.088 29.06C72.928 28.644 72.6133 28.3027 72.144 28.036C71.6747 27.7587 70.9867 27.62 70.08 27.62H66.24V33.156ZM121.588 46.5V24.1H129.492C131.348 24.1 132.82 24.4413 133.908 25.124C135.007 25.8067 135.791 26.6813 136.26 27.748C136.74 28.804 136.98 29.9027 136.98 31.044C136.98 31.844 136.842 32.6547 136.564 33.476C136.287 34.2867 135.85 35.0333 135.252 35.716C134.655 36.3987 133.882 36.948 132.932 37.364C131.983 37.78 130.836 37.988 129.492 37.988H125.396V46.5H121.588ZM125.396 34.404H129.684C130.516 34.404 131.183 34.2387 131.684 33.908C132.186 33.5667 132.548 33.14 132.772 32.628C132.996 32.1053 133.108 31.5773 133.108 31.044C133.108 30.564 133.007 30.068 132.804 29.556C132.602 29.0333 132.25 28.5907 131.748 28.228C131.258 27.8653 130.57 27.684 129.684 27.684H125.396V34.404Z" fill="#72AE55"/>
<path d="M88.3268 46.884C87.1854 46.884 86.1561 46.6813 85.2388 46.276C84.3321 45.8707 83.6121 45.268 83.0788 44.468C82.5454 43.6573 82.2788 42.6493 82.2788 41.444C82.2788 40.1853 82.5988 39.1613 83.2388 38.372C83.8788 37.572 84.6948 36.9853 85.6868 36.612C86.6894 36.228 87.7294 36.036 88.8068 36.036C89.6388 36.036 90.3801 36.1107 91.0308 36.26C91.6814 36.3987 92.2948 36.612 92.8708 36.9V35.94C92.8708 35.2147 92.7428 34.6387 92.4868 34.212C92.2308 33.7747 91.8574 33.4653 91.3668 33.284C90.8868 33.092 90.3108 32.996 89.6388 32.996C88.7321 32.996 87.8308 33.1453 86.9348 33.444C86.0494 33.7427 85.2228 34.148 84.4548 34.66L83.3348 31.652C84.1241 31.1507 85.0948 30.7133 86.2468 30.34C87.3988 29.956 88.6361 29.764 89.9588 29.764C90.6841 29.764 91.4254 29.8387 92.1828 29.988C92.9508 30.1267 93.6548 30.4093 94.2948 30.836C94.9454 31.252 95.4681 31.8707 95.8628 32.692C96.2574 33.5027 96.4548 34.5747 96.4548 35.908V46.5H92.8708V45.22C92.4228 45.6467 91.8308 46.0307 91.0948 46.372C90.3694 46.7133 89.4468 46.884 88.3268 46.884ZM88.9988 43.652C89.8948 43.652 90.6574 43.4867 91.2868 43.156C91.9268 42.8253 92.4548 42.4467 92.8708 42.02V39.908C92.4228 39.684 91.8948 39.508 91.2868 39.38C90.6894 39.2413 90.0548 39.172 89.3828 39.172C88.4441 39.172 87.6174 39.3533 86.9028 39.716C86.1881 40.068 85.8308 40.644 85.8308 41.444C85.8308 42.0947 86.1081 42.628 86.6628 43.044C87.2174 43.4493 87.9961 43.652 88.9988 43.652ZM109.614 46.884C107.331 46.884 105.512 46.132 104.158 44.628C102.803 43.124 102.126 41.028 102.126 38.34C102.126 36.5587 102.44 35.028 103.07 33.748C103.699 32.468 104.579 31.4867 105.71 30.804C106.84 30.1107 108.163 29.764 109.678 29.764C111.374 29.764 112.787 30.1267 113.918 30.852C115.059 31.5667 115.886 32.6867 116.398 34.212L112.91 35.396C112.675 34.7667 112.296 34.2547 111.774 33.86C111.262 33.4547 110.574 33.252 109.71 33.252C108.483 33.252 107.534 33.716 106.862 34.644C106.2 35.572 105.87 36.804 105.87 38.34C105.87 39.8867 106.2 41.1133 106.862 42.02C107.534 42.916 108.462 43.364 109.646 43.364C110.531 43.364 111.246 43.156 111.79 42.74C112.344 42.324 112.75 41.732 113.006 40.964L116.494 42.052C116.014 43.6307 115.203 44.8307 114.062 45.652C112.92 46.4733 111.438 46.884 109.614 46.884ZM146.875 46.5V23.396H150.555V46.5H146.875ZM142.107 46.5V43.268H155.323V46.5H142.107ZM143.067 26.628L141.371 23.396H150.555V26.628H143.067ZM167.362 46.884C166.252 46.884 165.234 46.6707 164.306 46.244C163.388 45.8173 162.652 45.108 162.098 44.116C161.554 43.124 161.282 41.7853 161.282 40.1V30.148H164.962V39.3C164.962 40.8147 165.287 41.8707 165.938 42.468C166.599 43.0653 167.394 43.364 168.322 43.364C168.962 43.364 169.554 43.2467 170.098 43.012C170.652 42.7667 171.095 42.356 171.426 41.78C171.767 41.1933 171.938 40.388 171.938 39.364V30.148H175.618V46.5H171.938V44.932C171.49 45.4867 170.86 45.9507 170.05 46.324C169.25 46.6973 168.354 46.884 167.362 46.884ZM188.265 46.884C186.846 46.884 185.555 46.6173 184.393 46.084C183.23 45.54 182.302 44.836 181.609 43.972L184.041 41.764C184.489 42.212 185.081 42.644 185.817 43.06C186.553 43.476 187.433 43.684 188.457 43.684C189.193 43.684 189.801 43.5613 190.281 43.316C190.771 43.0707 191.017 42.66 191.017 42.084C191.017 41.7213 190.867 41.412 190.569 41.156C190.27 40.8893 189.833 40.6333 189.257 40.388C188.681 40.1427 187.977 39.8653 187.145 39.556C186.11 39.172 185.198 38.756 184.409 38.308C183.63 37.86 183.022 37.316 182.585 36.676C182.147 36.0253 181.929 35.2147 181.929 34.244C181.929 33.2947 182.206 32.4893 182.761 31.828C183.326 31.156 184.083 30.644 185.033 30.292C185.993 29.94 187.059 29.764 188.233 29.764C189.641 29.764 190.851 30.0147 191.865 30.516C192.878 31.0173 193.705 31.6307 194.345 32.356L191.849 34.404C191.433 34.0307 190.91 33.7 190.281 33.412C189.651 33.1133 188.873 32.964 187.945 32.964C187.241 32.964 186.659 33.0707 186.201 33.284C185.742 33.4973 185.513 33.8387 185.513 34.308C185.513 34.6387 185.667 34.932 185.977 35.188C186.297 35.4333 186.723 35.668 187.257 35.892C187.79 36.116 188.382 36.3453 189.033 36.58C189.971 36.9213 190.862 37.3053 191.705 37.732C192.558 38.1587 193.251 38.7133 193.785 39.396C194.329 40.068 194.601 40.9533 194.601 42.052C194.601 43.588 194.019 44.7773 192.857 45.62C191.705 46.4627 190.174 46.884 188.265 46.884Z" fill="black"/>
</svg>
